<?xml version="1.0" encoding="UTF-8" standalone="no"?><svg xmlns="http://www.w3.org/2000/svg" xmlns:xlink="http://www.w3.org/1999/xlink" contentScriptType="application/ecmascript" contentStyleType="text/css" height="2203px" preserveAspectRatio="none" style="width:1601px;height:2203px;" version="1.1" viewBox="0 0 1601 2203" width="1601px" zoomAndPan="magnify"><defs><filter height="300%" id="f7cvdo2" width="300%" x="-1" y="-1"><feGaussianBlur result="blurOut" stdDeviation="2.0"/><feColorMatrix in="blurOut" result="blurOut2" type="matrix" values="0 0 0 0 0 0 0 0 0 0 0 0 0 0 0 0 0 0 .4 0"/><feOffset dx="4.0" dy="4.0" in="blurOut2" result="blurOut3"/><feBlend in="SourceGraphic" in2="blurOut3" mode="normal"/></filter></defs><g><!--class SkillwillApplication--><rect fill="#FEFECE" filter="url(#f7cvdo2)" height="48" style="stroke: #A80036; stroke-width: 1.5;" width="143" x="6" y="555.96"/><ellipse cx="21" cy="571.96" fill="#ADD1B2" rx="11" ry="11" style="stroke: #A80036; stroke-width: 1.0;"/><path d="M23.3438,567.6319 L23.5156,567.71 C23.7344,567.3975 23.9375,567.3038 24.2344,567.3038 C24.5313,567.3038 24.8125,567.4444 24.9688,567.71 C25.0625,567.8663 25.0781,567.9913 25.0781,568.4288 L25.0781,569.8506 C25.0781,570.2725 25.0469,570.46 24.9375,570.6163 C24.7656,570.835 24.5,570.9756 24.2344,570.9756 C24.0156,570.9756 23.7813,570.8663 23.6406,570.7256 C23.5,570.6006 23.4688,570.4756 23.4063,570.0694 C23.3125,569.6631 23.1406,569.4444 22.6563,569.1631 C22.1875,568.9131 21.5781,568.7569 21,568.7569 C19.2656,568.7569 18.0156,570.0694 18.0156,571.8506 L18.0156,572.9444 C18.0156,574.6475 19.3125,575.7413 21.3594,575.7413 C22.125,575.7413 22.8125,575.6163 23.2344,575.3506 C23.4219,575.2569 23.4219,575.2569 23.875,574.7725 C24.0625,574.585 24.2656,574.5069 24.4844,574.5069 C24.9531,574.5069 25.3438,574.8975 25.3438,575.3506 C25.3438,575.7413 25.0156,576.1944 24.4375,576.6006 C23.6875,577.1475 22.5313,577.4444 21.3125,577.4444 C18.4219,577.4444 16.3125,575.5538 16.3125,572.9756 L16.3125,571.8506 C16.3125,569.1319 18.3125,567.0538 20.9375,567.0538 C21.8125,567.0538 22.4063,567.1944 23.3438,567.6319 Z "/><text fill="#000000" font-family="sans-serif" font-size="12" lengthAdjust="spacingAndGlyphs" textLength="111" x="35" y="576.1143">SkillwillApplication</text><line style="stroke: #A80036; stroke-width: 1.5;" x1="7" x2="148" y1="587.96" y2="587.96"/><line style="stroke: #A80036; stroke-width: 1.5;" x1="7" x2="148" y1="595.96" y2="595.96"/><!--class SwaggerForward--><rect fill="#FEFECE" filter="url(#f7cvdo2)" height="48" style="stroke: #A80036; stroke-width: 1.5;" width="136" x="209" y="288.96"/><ellipse cx="224" cy="304.96" fill="#ADD1B2" rx="11" ry="11" style="stroke: #A80036; stroke-width: 1.0;"/><path d="M226.3438,300.6319 L226.5156,300.71 C226.7344,300.3975 226.9375,300.3038 227.2344,300.3038 C227.5313,300.3038 227.8125,300.4444 227.9688,300.71 C228.0625,300.8663 228.0781,300.9913 228.0781,301.4288 L228.0781,302.8506 C228.0781,303.2725 228.0469,303.46 227.9375,303.6163 C227.7656,303.835 227.5,303.9756 227.2344,303.9756 C227.0156,303.9756 226.7813,303.8663 226.6406,303.7256 C226.5,303.6006 226.4688,303.4756 226.4063,303.0694 C226.3125,302.6631 226.1406,302.4444 225.6563,302.1631 C225.1875,301.9131 224.5781,301.7569 224,301.7569 C222.2656,301.7569 221.0156,303.0694 221.0156,304.8506 L221.0156,305.9444 C221.0156,307.6475 222.3125,308.7413 224.3594,308.7413 C225.125,308.7413 225.8125,308.6163 226.2344,308.3506 C226.4219,308.2569 226.4219,308.2569 226.875,307.7725 C227.0625,307.585 227.2656,307.5069 227.4844,307.5069 C227.9531,307.5069 228.3438,307.8975 228.3438,308.3506 C228.3438,308.7413 228.0156,309.1944 227.4375,309.6006 C226.6875,310.1475 225.5313,310.4444 224.3125,310.4444 C221.4219,310.4444 219.3125,308.5538 219.3125,305.9756 L219.3125,304.8506 C219.3125,302.1319 221.3125,300.0538 223.9375,300.0538 C224.8125,300.0538 225.4063,300.1944 226.3438,300.6319 Z "/><text fill="#000000" font-family="sans-serif" font-size="12" lengthAdjust="spacingAndGlyphs" textLength="104" x="238" y="309.1143">SwaggerForward</text><line style="stroke: #A80036; stroke-width: 1.5;" x1="210" x2="344" y1="320.96" y2="320.96"/><line style="stroke: #A80036; stroke-width: 1.5;" x1="210" x2="344" y1="328.96" y2="328.96"/><!--class HTCPCPImpl--><rect fill="#FEFECE" filter="url(#f7cvdo2)" height="48" style="stroke: #A80036; stroke-width: 1.5;" width="105" x="224.5" y="1129.964"/><ellipse cx="239.5" cy="1145.964" fill="#ADD1B2" rx="11" ry="11" style="stroke: #A80036; stroke-width: 1.0;"/><path d="M241.8438,1141.6359 L242.0156,1141.714 C242.2344,1141.4015 242.4375,1141.3078 242.7344,1141.3078 C243.0313,1141.3078 243.3125,1141.4484 243.4688,1141.714 C243.5625,1141.8703 243.5781,1141.9953 243.5781,1142.4328 L243.5781,1143.8546 C243.5781,1144.2765 243.5469,1144.464 243.4375,1144.6203 C243.2656,1144.839 243,1144.9796 242.7344,1144.9796 C242.5156,1144.9796 242.2813,1144.8703 242.1406,1144.7296 C242,1144.6046 241.9688,1144.4796 241.9063,1144.0734 C241.8125,1143.6671 241.6406,1143.4484 241.1563,1143.1671 C240.6875,1142.9171 240.0781,1142.7609 239.5,1142.7609 C237.7656,1142.7609 236.5156,1144.0734 236.5156,1145.8546 L236.5156,1146.9484 C236.5156,1148.6515 237.8125,1149.7453 239.8594,1149.7453 C240.625,1149.7453 241.3125,1149.6203 241.7344,1149.3546 C241.9219,1149.2609 241.9219,1149.2609 242.375,1148.7765 C242.5625,1148.589 242.7656,1148.5109 242.9844,1148.5109 C243.4531,1148.5109 243.8438,1148.9015 243.8438,1149.3546 C243.8438,1149.7453 243.5156,1150.1984 242.9375,1150.6046 C242.1875,1151.1515 241.0313,1151.4484 239.8125,1151.4484 C236.9219,1151.4484 234.8125,1149.5578 234.8125,1146.9796 L234.8125,1145.8546 C234.8125,1143.1359 236.8125,1141.0578 239.4375,1141.0578 C240.3125,1141.0578 240.9063,1141.1984 241.8438,1141.6359 Z "/><text fill="#000000" font-family="sans-serif" font-size="12" lengthAdjust="spacingAndGlyphs" textLength="73" x="253.5" y="1150.1183">HTCPCPImpl</text><line style="stroke: #A80036; stroke-width: 1.5;" x1="225.5" x2="328.5" y1="1161.964" y2="1161.964"/><line style="stroke: #A80036; stroke-width: 1.5;" x1="225.5" x2="328.5" y1="1169.964" y2="1169.964"/><!--class LdapSyncJob--><rect fill="#FEFECE" filter="url(#f7cvdo2)" height="48" style="stroke: #A80036; stroke-width: 1.5;" width="110" x="425.5" y="590.96"/><ellipse cx="440.5" cy="606.96" fill="#ADD1B2" rx="11" ry="11" style="stroke: #A80036; stroke-width: 1.0;"/><path d="M442.8438,602.6319 L443.0156,602.71 C443.2344,602.3975 443.4375,602.3038 443.7344,602.3038 C444.0313,602.3038 444.3125,602.4444 444.4688,602.71 C444.5625,602.8663 444.5781,602.9913 444.5781,603.4288 L444.5781,604.8506 C444.5781,605.2725 444.5469,605.46 444.4375,605.6163 C444.2656,605.835 444,605.9756 443.7344,605.9756 C443.5156,605.9756 443.2813,605.8663 443.1406,605.7256 C443,605.6006 442.9688,605.4756 442.9063,605.0694 C442.8125,604.6631 442.6406,604.4444 442.1563,604.1631 C441.6875,603.9131 441.0781,603.7569 440.5,603.7569 C438.7656,603.7569 437.5156,605.0694 437.5156,606.8506 L437.5156,607.9444 C437.5156,609.6475 438.8125,610.7413 440.8594,610.7413 C441.625,610.7413 442.3125,610.6163 442.7344,610.3506 C442.9219,610.2569 442.9219,610.2569 443.375,609.7725 C443.5625,609.585 443.7656,609.5069 443.9844,609.5069 C444.4531,609.5069 444.8438,609.8975 444.8438,610.3506 C444.8438,610.7413 444.5156,611.1944 443.9375,611.6006 C443.1875,612.1475 442.0313,612.4444 440.8125,612.4444 C437.9219,612.4444 435.8125,610.5538 435.8125,607.9756 L435.8125,606.8506 C435.8125,604.1319 437.8125,602.0538 440.4375,602.0538 C441.3125,602.0538 441.9063,602.1944 442.8438,602.6319 Z "/><text fill="#000000" font-family="sans-serif" font-size="12" lengthAdjust="spacingAndGlyphs" textLength="78" x="454.5" y="611.1143">LdapSyncJob</text><line style="stroke: #A80036; stroke-width: 1.5;" x1="426.5" x2="534.5" y1="622.96" y2="622.96"/><line style="stroke: #A80036; stroke-width: 1.5;" x1="426.5" x2="534.5" y1="630.96" y2="630.96"/><!--class SessionCleanupJob--><rect fill="#FEFECE" filter="url(#f7cvdo2)" height="48" style="stroke: #A80036; stroke-width: 1.5;" width="151" x="405" y="217.96"/><ellipse cx="420" cy="233.96" fill="#ADD1B2" rx="11" ry="11" style="stroke: #A80036; stroke-width: 1.0;"/><path d="M422.3438,229.6319 L422.5156,229.71 C422.7344,229.3975 422.9375,229.3038 423.2344,229.3038 C423.5313,229.3038 423.8125,229.4444 423.9688,229.71 C424.0625,229.8663 424.0781,229.9913 424.0781,230.4288 L424.0781,231.8506 C424.0781,232.2725 424.0469,232.46 423.9375,232.6163 C423.7656,232.835 423.5,232.9756 423.2344,232.9756 C423.0156,232.9756 422.7813,232.8663 422.6406,232.7256 C422.5,232.6006 422.4688,232.4756 422.4063,232.0694 C422.3125,231.6631 422.1406,231.4444 421.6563,231.1631 C421.1875,230.9131 420.5781,230.7569 420,230.7569 C418.2656,230.7569 417.0156,232.0694 417.0156,233.8506 L417.0156,234.9444 C417.0156,236.6475 418.3125,237.7413 420.3594,237.7413 C421.125,237.7413 421.8125,237.6163 422.2344,237.3506 C422.4219,237.2569 422.4219,237.2569 422.875,236.7725 C423.0625,236.585 423.2656,236.5069 423.4844,236.5069 C423.9531,236.5069 424.3438,236.8975 424.3438,237.3506 C424.3438,237.7413 424.0156,238.1944 423.4375,238.6006 C422.6875,239.1475 421.5313,239.4444 420.3125,239.4444 C417.4219,239.4444 415.3125,237.5538 415.3125,234.9756 L415.3125,233.8506 C415.3125,231.1319 417.3125,229.0538 419.9375,229.0538 C420.8125,229.0538 421.4063,229.1944 422.3438,229.6319 Z "/><text fill="#000000" font-family="sans-serif" font-size="12" lengthAdjust="spacingAndGlyphs" textLength="119" x="434" y="238.1143">SessionCleanupJob</text><line style="stroke: #A80036; stroke-width: 1.5;" x1="406" x2="555" y1="249.96" y2="249.96"/><line style="stroke: #A80036; stroke-width: 1.5;" x1="406" x2="555" y1="257.96" y2="257.96"/><!--class LoginController--><rect fill="#FEFECE" filter="url(#f7cvdo2)" height="48" style="stroke: #A80036; stroke-width: 1.5;" width="126" x="214" y="442.96"/><ellipse cx="229" cy="458.96" fill="#ADD1B2" rx="11" ry="11" style="stroke: #A80036; stroke-width: 1.0;"/><path d="M231.3438,454.6319 L231.5156,454.71 C231.7344,454.3975 231.9375,454.3038 232.2344,454.3038 C232.5313,454.3038 232.8125,454.4444 232.9688,454.71 C233.0625,454.8663 233.0781,454.9913 233.0781,455.4288 L233.0781,456.8506 C233.0781,457.2725 233.0469,457.46 232.9375,457.6163 C232.7656,457.835 232.5,457.9756 232.2344,457.9756 C232.0156,457.9756 231.7813,457.8663 231.6406,457.7256 C231.5,457.6006 231.4688,457.4756 231.4063,457.0694 C231.3125,456.6631 231.1406,456.4444 230.6563,456.1631 C230.1875,455.9131 229.5781,455.7569 229,455.7569 C227.2656,455.7569 226.0156,457.0694 226.0156,458.8506 L226.0156,459.9444 C226.0156,461.6475 227.3125,462.7413 229.3594,462.7413 C230.125,462.7413 230.8125,462.6163 231.2344,462.3506 C231.4219,462.2569 231.4219,462.2569 231.875,461.7725 C232.0625,461.585 232.2656,461.5069 232.4844,461.5069 C232.9531,461.5069 233.3438,461.8975 233.3438,462.3506 C233.3438,462.7413 233.0156,463.1944 232.4375,463.6006 C231.6875,464.1475 230.5313,464.4444 229.3125,464.4444 C226.4219,464.4444 224.3125,462.5538 224.3125,459.9756 L224.3125,458.8506 C224.3125,456.1319 226.3125,454.0538 228.9375,454.0538 C229.8125,454.0538 230.4063,454.1944 231.3438,454.6319 Z "/><text fill="#000000" font-family="sans-serif" font-size="12" lengthAdjust="spacingAndGlyphs" textLength="94" x="243" y="463.1143">LoginController</text><line style="stroke: #A80036; stroke-width: 1.5;" x1="215" x2="339" y1="474.96" y2="474.96"/><line style="stroke: #A80036; stroke-width: 1.5;" x1="215" x2="339" y1="482.96" y2="482.96"/><!--class SkillController--><rect fill="#FEFECE" filter="url(#f7cvdo2)" height="48" style="stroke: #A80036; stroke-width: 1.5;" width="117" x="218.5" y="996.96"/><ellipse cx="233.5" cy="1012.96" fill="#ADD1B2" rx="11" ry="11" style="stroke: #A80036; stroke-width: 1.0;"/><path d="M235.8438,1008.6319 L236.0156,1008.71 C236.2344,1008.3975 236.4375,1008.3038 236.7344,1008.3038 C237.0313,1008.3038 237.3125,1008.4444 237.4688,1008.71 C237.5625,1008.8663 237.5781,1008.9913 237.5781,1009.4288 L237.5781,1010.8506 C237.5781,1011.2725 237.5469,1011.46 237.4375,1011.6163 C237.2656,1011.835 237,1011.9756 236.7344,1011.9756 C236.5156,1011.9756 236.2813,1011.8663 236.1406,1011.7256 C236,1011.6006 235.9688,1011.4756 235.9063,1011.0694 C235.8125,1010.6631 235.6406,1010.4444 235.1563,1010.1631 C234.6875,1009.9131 234.0781,1009.7569 233.5,1009.7569 C231.7656,1009.7569 230.5156,1011.0694 230.5156,1012.8506 L230.5156,1013.9444 C230.5156,1015.6475 231.8125,1016.7413 233.8594,1016.7413 C234.625,1016.7413 235.3125,1016.6163 235.7344,1016.3506 C235.9219,1016.2569 235.9219,1016.2569 236.375,1015.7725 C236.5625,1015.585 236.7656,1015.5069 236.9844,1015.5069 C237.4531,1015.5069 237.8438,1015.8975 237.8438,1016.3506 C237.8438,1016.7413 237.5156,1017.1944 236.9375,1017.6006 C236.1875,1018.1475 235.0313,1018.4444 233.8125,1018.4444 C230.9219,1018.4444 228.8125,1016.5538 228.8125,1013.9756 L228.8125,1012.8506 C228.8125,1010.1319 230.8125,1008.0538 233.4375,1008.0538 C234.3125,1008.0538 234.9063,1008.1944 235.8438,1008.6319 Z "/><text fill="#000000" font-family="sans-serif" font-size="12" lengthAdjust="spacingAndGlyphs" textLength="85" x="247.5" y="1017.1143">SkillController</text><line style="stroke: #A80036; stroke-width: 1.5;" x1="219.5" x2="334.5" y1="1028.96" y2="1028.96"/><line style="stroke: #A80036; stroke-width: 1.5;" x1="219.5" x2="334.5" y1="1036.96" y2="1036.96"/><!--class UserController--><rect fill="#FEFECE" filter="url(#f7cvdo2)" height="48" style="stroke: #A80036; stroke-width: 1.5;" width="122" x="216" y="1362.964"/><ellipse cx="231" cy="1378.964" fill="#ADD1B2" rx="11" ry="11" style="stroke: #A80036; stroke-width: 1.0;"/><path d="M233.3438,1374.6359 L233.5156,1374.714 C233.7344,1374.4015 233.9375,1374.3078 234.2344,1374.3078 C234.5313,1374.3078 234.8125,1374.4484 234.9688,1374.714 C235.0625,1374.8703 235.0781,1374.9953 235.0781,1375.4328 L235.0781,1376.8546 C235.0781,1377.2765 235.0469,1377.464 234.9375,1377.6203 C234.7656,1377.839 234.5,1377.9796 234.2344,1377.9796 C234.0156,1377.9796 233.7813,1377.8703 233.6406,1377.7296 C233.5,1377.6046 233.4688,1377.4796 233.4063,1377.0734 C233.3125,1376.6671 233.1406,1376.4484 232.6563,1376.1671 C232.1875,1375.9171 231.5781,1375.7609 231,1375.7609 C229.2656,1375.7609 228.0156,1377.0734 228.0156,1378.8546 L228.0156,1379.9484 C228.0156,1381.6515 229.3125,1382.7453 231.3594,1382.7453 C232.125,1382.7453 232.8125,1382.6203 233.2344,1382.3546 C233.4219,1382.2609 233.4219,1382.2609 233.875,1381.7765 C234.0625,1381.589 234.2656,1381.5109 234.4844,1381.5109 C234.9531,1381.5109 235.3438,1381.9015 235.3438,1382.3546 C235.3438,1382.7453 235.0156,1383.1984 234.4375,1383.6046 C233.6875,1384.1515 232.5313,1384.4484 231.3125,1384.4484 C228.4219,1384.4484 226.3125,1382.5578 226.3125,1379.9796 L226.3125,1378.8546 C226.3125,1376.1359 228.3125,1374.0578 230.9375,1374.0578 C231.8125,1374.0578 232.4063,1374.1984 233.3438,1374.6359 Z "/><text fill="#000000" font-family="sans-serif" font-size="12" lengthAdjust="spacingAndGlyphs" textLength="90" x="245" y="1383.1183">UserController</text><line style="stroke: #A80036; stroke-width: 1.5;" x1="217" x2="337" y1="1394.964" y2="1394.964"/><line style="stroke: #A80036; stroke-width: 1.5;" x1="217" x2="337" y1="1402.964" y2="1402.964"/><!--class MockData--><rect fill="#FEFECE" filter="url(#f7cvdo2)" height="48" style="stroke: #A80036; stroke-width: 1.5;" width="94" x="433.5" y="478.96"/><ellipse cx="448.5" cy="494.96" fill="#ADD1B2" rx="11" ry="11" style="stroke: #A80036; stroke-width: 1.0;"/><path d="M450.8438,490.6319 L451.0156,490.71 C451.2344,490.3975 451.4375,490.3038 451.7344,490.3038 C452.0313,490.3038 452.3125,490.4444 452.4688,490.71 C452.5625,490.8663 452.5781,490.9913 452.5781,491.4288 L452.5781,492.8506 C452.5781,493.2725 452.5469,493.46 452.4375,493.6163 C452.2656,493.835 452,493.9756 451.7344,493.9756 C451.5156,493.9756 451.2813,493.8663 451.1406,493.7256 C451,493.6006 450.9688,493.4756 450.9063,493.0694 C450.8125,492.6631 450.6406,492.4444 450.1563,492.1631 C449.6875,491.9131 449.0781,491.7569 448.5,491.7569 C446.7656,491.7569 445.5156,493.0694 445.5156,494.8506 L445.5156,495.9444 C445.5156,497.6475 446.8125,498.7413 448.8594,498.7413 C449.625,498.7413 450.3125,498.6163 450.7344,498.3506 C450.9219,498.2569 450.9219,498.2569 451.375,497.7725 C451.5625,497.585 451.7656,497.5069 451.9844,497.5069 C452.4531,497.5069 452.8438,497.8975 452.8438,498.3506 C452.8438,498.7413 452.5156,499.1944 451.9375,499.6006 C451.1875,500.1475 450.0313,500.4444 448.8125,500.4444 C445.9219,500.4444 443.8125,498.5538 443.8125,495.9756 L443.8125,494.8506 C443.8125,492.1319 445.8125,490.0538 448.4375,490.0538 C449.3125,490.0538 449.9063,490.1944 450.8438,490.6319 Z "/><text fill="#000000" font-family="sans-serif" font-size="12" lengthAdjust="spacingAndGlyphs" textLength="62" x="462.5" y="499.1143">MockData</text><line style="stroke: #A80036; stroke-width: 1.5;" x1="434.5" x2="526.5" y1="510.96" y2="510.96"/><line style="stroke: #A80036; stroke-width: 1.5;" x1="434.5" x2="526.5" y1="518.96" y2="518.96"/><!--class FitnessScore--><rect fill="#FEFECE" filter="url(#f7cvdo2)" height="48" style="stroke: #A80036; stroke-width: 1.5;" width="113" x="939" y="1804.964"/><ellipse cx="954" cy="1820.964" fill="#ADD1B2" rx="11" ry="11" style="stroke: #A80036; stroke-width: 1.0;"/><path d="M956.3438,1816.6359 L956.5156,1816.714 C956.7344,1816.4015 956.9375,1816.3078 957.2344,1816.3078 C957.5313,1816.3078 957.8125,1816.4484 957.9688,1816.714 C958.0625,1816.8703 958.0781,1816.9953 958.0781,1817.4328 L958.0781,1818.8546 C958.0781,1819.2765 958.0469,1819.464 957.9375,1819.6203 C957.7656,1819.839 957.5,1819.9796 957.2344,1819.9796 C957.0156,1819.9796 956.7813,1819.8703 956.6406,1819.7296 C956.5,1819.6046 956.4688,1819.4796 956.4063,1819.0734 C956.3125,1818.6671 956.1406,1818.4484 955.6563,1818.1671 C955.1875,1817.9171 954.5781,1817.7609 954,1817.7609 C952.2656,1817.7609 951.0156,1819.0734 951.0156,1820.8546 L951.0156,1821.9484 C951.0156,1823.6515 952.3125,1824.7453 954.3594,1824.7453 C955.125,1824.7453 955.8125,1824.6203 956.2344,1824.3546 C956.4219,1824.2609 956.4219,1824.2609 956.875,1823.7765 C957.0625,1823.589 957.2656,1823.5109 957.4844,1823.5109 C957.9531,1823.5109 958.3438,1823.9015 958.3438,1824.3546 C958.3438,1824.7453 958.0156,1825.1984 957.4375,1825.6046 C956.6875,1826.1515 955.5313,1826.4484 954.3125,1826.4484 C951.4219,1826.4484 949.3125,1824.5578 949.3125,1821.9796 L949.3125,1820.8546 C949.3125,1818.1359 951.3125,1816.0578 953.9375,1816.0578 C954.8125,1816.0578 955.4063,1816.1984 956.3438,1816.6359 Z "/><text fill="#000000" font-family="sans-serif" font-size="12" lengthAdjust="spacingAndGlyphs" textLength="81" x="968" y="1825.1183">FitnessScore</text><line style="stroke: #A80036; stroke-width: 1.5;" x1="940" x2="1051" y1="1836.964" y2="1836.964"/><line style="stroke: #A80036; stroke-width: 1.5;" x1="940" x2="1051" y1="1844.964" y2="1844.964"/><!--class FitnessScoreComparator--><rect fill="#FEFECE" filter="url(#f7cvdo2)" height="48" style="stroke: #A80036; stroke-width: 1.5;" width="187" x="622" y="1774.964"/><ellipse cx="637" cy="1790.964" fill="#ADD1B2" rx="11" ry="11" style="stroke: #A80036; stroke-width: 1.0;"/><path d="M639.3438,1786.6359 L639.5156,1786.714 C639.7344,1786.4015 639.9375,1786.3078 640.2344,1786.3078 C640.5313,1786.3078 640.8125,1786.4484 640.9688,1786.714 C641.0625,1786.8703 641.0781,1786.9953 641.0781,1787.4328 L641.0781,1788.8546 C641.0781,1789.2765 641.0469,1789.464 640.9375,1789.6203 C640.7656,1789.839 640.5,1789.9796 640.2344,1789.9796 C640.0156,1789.9796 639.7813,1789.8703 639.6406,1789.7296 C639.5,1789.6046 639.4688,1789.4796 639.4063,1789.0734 C639.3125,1788.6671 639.1406,1788.4484 638.6563,1788.1671 C638.1875,1787.9171 637.5781,1787.7609 637,1787.7609 C635.2656,1787.7609 634.0156,1789.0734 634.0156,1790.8546 L634.0156,1791.9484 C634.0156,1793.6515 635.3125,1794.7453 637.3594,1794.7453 C638.125,1794.7453 638.8125,1794.6203 639.2344,1794.3546 C639.4219,1794.2609 639.4219,1794.2609 639.875,1793.7765 C640.0625,1793.589 640.2656,1793.5109 640.4844,1793.5109 C640.9531,1793.5109 641.3438,1793.9015 641.3438,1794.3546 C641.3438,1794.7453 641.0156,1795.1984 640.4375,1795.6046 C639.6875,1796.1515 638.5313,1796.4484 637.3125,1796.4484 C634.4219,1796.4484 632.3125,1794.5578 632.3125,1791.9796 L632.3125,1790.8546 C632.3125,1788.1359 634.3125,1786.0578 636.9375,1786.0578 C637.8125,1786.0578 638.4063,1786.1984 639.3438,1786.6359 Z "/><text fill="#000000" font-family="sans-serif" font-size="12" lengthAdjust="spacingAndGlyphs" textLength="155" x="651" y="1795.1183">FitnessScoreComparator</text><line style="stroke: #A80036; stroke-width: 1.5;" x1="623" x2="808" y1="1806.964" y2="1806.964"/><line style="stroke: #A80036; stroke-width: 1.5;" x1="623" x2="808" y1="1814.964" y2="1814.964"/><!--class UserService--><rect fill="#FEFECE" filter="url(#f7cvdo2)" height="48" style="stroke: #A80036; stroke-width: 1.5;" width="106" x="427.5" y="1492.964"/><ellipse cx="442.5" cy="1508.964" fill="#ADD1B2" rx="11" ry="11" style="stroke: #A80036; stroke-width: 1.0;"/><path d="M444.8438,1504.6359 L445.0156,1504.714 C445.2344,1504.4015 445.4375,1504.3078 445.7344,1504.3078 C446.0313,1504.3078 446.3125,1504.4484 446.4688,1504.714 C446.5625,1504.8703 446.5781,1504.9953 446.5781,1505.4328 L446.5781,1506.8546 C446.5781,1507.2765 446.5469,1507.464 446.4375,1507.6203 C446.2656,1507.839 446,1507.9796 445.7344,1507.9796 C445.5156,1507.9796 445.2813,1507.8703 445.1406,1507.7296 C445,1507.6046 444.9688,1507.4796 444.9063,1507.0734 C444.8125,1506.6671 444.6406,1506.4484 444.1563,1506.1671 C443.6875,1505.9171 443.0781,1505.7609 442.5,1505.7609 C440.7656,1505.7609 439.5156,1507.0734 439.5156,1508.8546 L439.5156,1509.9484 C439.5156,1511.6515 440.8125,1512.7453 442.8594,1512.7453 C443.625,1512.7453 444.3125,1512.6203 444.7344,1512.3546 C444.9219,1512.2609 444.9219,1512.2609 445.375,1511.7765 C445.5625,1511.589 445.7656,1511.5109 445.9844,1511.5109 C446.4531,1511.5109 446.8438,1511.9015 446.8438,1512.3546 C446.8438,1512.7453 446.5156,1513.1984 445.9375,1513.6046 C445.1875,1514.1515 444.0313,1514.4484 442.8125,1514.4484 C439.9219,1514.4484 437.8125,1512.5578 437.8125,1509.9796 L437.8125,1508.8546 C437.8125,1506.1359 439.8125,1504.0578 442.4375,1504.0578 C443.3125,1504.0578 443.9063,1504.1984 444.8438,1504.6359 Z "/><text fill="#000000" font-family="sans-serif" font-size="12" lengthAdjust="spacingAndGlyphs" textLength="74" x="456.5" y="1513.1183">UserService</text><line style="stroke: #A80036; stroke-width: 1.5;" x1="428.5" x2="532.5" y1="1524.964" y2="1524.964"/><line style="stroke: #A80036; stroke-width: 1.5;" x1="428.5" x2="532.5" y1="1532.964" y2="1532.964"/><!--class FitnessScoreProperties--><rect fill="#FEFECE" filter="url(#f7cvdo2)" height="48" style="stroke: #A80036; stroke-width: 1.5;" width="178" x="1176" y="1917.964"/><ellipse cx="1191" cy="1933.964" fill="#ADD1B2" rx="11" ry="11" style="stroke: #A80036; stroke-width: 1.0;"/><path d="M1193.3438,1929.6359 L1193.5156,1929.714 C1193.7344,1929.4015 1193.9375,1929.3078 1194.2344,1929.3078 C1194.5313,1929.3078 1194.8125,1929.4484 1194.9688,1929.714 C1195.0625,1929.8703 1195.0781,1929.9953 1195.0781,1930.4328 L1195.0781,1931.8546 C1195.0781,1932.2765 1195.0469,1932.464 1194.9375,1932.6203 C1194.7656,1932.839 1194.5,1932.9796 1194.2344,1932.9796 C1194.0156,1932.9796 1193.7813,1932.8703 1193.6406,1932.7296 C1193.5,1932.6046 1193.4688,1932.4796 1193.4063,1932.0734 C1193.3125,1931.6671 1193.1406,1931.4484 1192.6563,1931.1671 C1192.1875,1930.9171 1191.5781,1930.7609 1191,1930.7609 C1189.2656,1930.7609 1188.0156,1932.0734 1188.0156,1933.8546 L1188.0156,1934.9484 C1188.0156,1936.6515 1189.3125,1937.7453 1191.3594,1937.7453 C1192.125,1937.7453 1192.8125,1937.6203 1193.2344,1937.3546 C1193.4219,1937.2609 1193.4219,1937.2609 1193.875,1936.7765 C1194.0625,1936.589 1194.2656,1936.5109 1194.4844,1936.5109 C1194.9531,1936.5109 1195.3438,1936.9015 1195.3438,1937.3546 C1195.3438,1937.7453 1195.0156,1938.1984 1194.4375,1938.6046 C1193.6875,1939.1515 1192.5313,1939.4484 1191.3125,1939.4484 C1188.4219,1939.4484 1186.3125,1937.5578 1186.3125,1934.9796 L1186.3125,1933.8546 C1186.3125,1931.1359 1188.3125,1929.0578 1190.9375,1929.0578 C1191.8125,1929.0578 1192.4063,1929.1984 1193.3438,1929.6359 Z "/><text fill="#000000" font-family="sans-serif" font-size="12" lengthAdjust="spacingAndGlyphs" textLength="146" x="1205" y="1938.1183">FitnessScoreProperties</text><line style="stroke: #A80036; stroke-width: 1.5;" x1="1177" x2="1353" y1="1949.964" y2="1949.964"/><line style="stroke: #A80036; stroke-width: 1.5;" x1="1177" x2="1353" y1="1957.964" y2="1957.964"/><!--class Person--><rect fill="#FEFECE" filter="url(#f7cvdo2)" height="48" style="stroke: #A80036; stroke-width: 1.5;" width="76" x="1227" y="1281.964"/><ellipse cx="1242" cy="1297.964" fill="#ADD1B2" rx="11" ry="11" style="stroke: #A80036; stroke-width: 1.0;"/><path d="M1244.3438,1293.6359 L1244.5156,1293.714 C1244.7344,1293.4015 1244.9375,1293.3078 1245.2344,1293.3078 C1245.5313,1293.3078 1245.8125,1293.4484 1245.9688,1293.714 C1246.0625,1293.8703 1246.0781,1293.9953 1246.0781,1294.4328 L1246.0781,1295.8546 C1246.0781,1296.2765 1246.0469,1296.464 1245.9375,1296.6203 C1245.7656,1296.839 1245.5,1296.9796 1245.2344,1296.9796 C1245.0156,1296.9796 1244.7813,1296.8703 1244.6406,1296.7296 C1244.5,1296.6046 1244.4688,1296.4796 1244.4063,1296.0734 C1244.3125,1295.6671 1244.1406,1295.4484 1243.6563,1295.1671 C1243.1875,1294.9171 1242.5781,1294.7609 1242,1294.7609 C1240.2656,1294.7609 1239.0156,1296.0734 1239.0156,1297.8546 L1239.0156,1298.9484 C1239.0156,1300.6515 1240.3125,1301.7453 1242.3594,1301.7453 C1243.125,1301.7453 1243.8125,1301.6203 1244.2344,1301.3546 C1244.4219,1301.2609 1244.4219,1301.2609 1244.875,1300.7765 C1245.0625,1300.589 1245.2656,1300.5109 1245.4844,1300.5109 C1245.9531,1300.5109 1246.3438,1300.9015 1246.3438,1301.3546 C1246.3438,1301.7453 1246.0156,1302.1984 1245.4375,1302.6046 C1244.6875,1303.1515 1243.5313,1303.4484 1242.3125,1303.4484 C1239.4219,1303.4484 1237.3125,1301.5578 1237.3125,1298.9796 L1237.3125,1297.8546 C1237.3125,1295.1359 1239.3125,1293.0578 1241.9375,1293.0578 C1242.8125,1293.0578 1243.4063,1293.1984 1244.3438,1293.6359 Z "/><text fill="#000000" font-family="sans-serif" font-size="12" lengthAdjust="spacingAndGlyphs" textLength="44" x="1256" y="1302.1183">Person</text><line style="stroke: #A80036; stroke-width: 1.5;" x1="1228" x2="1302" y1="1313.964" y2="1313.964"/><line style="stroke: #A80036; stroke-width: 1.5;" x1="1228" x2="1302" y1="1321.964" y2="1321.964"/><!--class LdapService--><rect fill="#FEFECE" filter="url(#f7cvdo2)" height="48" style="stroke: #A80036; stroke-width: 1.5;" width="107" x="662" y="457.96"/><ellipse cx="677" cy="473.96" fill="#ADD1B2" rx="11" ry="11" style="stroke: #A80036; stroke-width: 1.0;"/><path d="M679.3438,469.6319 L679.5156,469.71 C679.7344,469.3975 679.9375,469.3038 680.2344,469.3038 C680.5313,469.3038 680.8125,469.4444 680.9688,469.71 C681.0625,469.8663 681.0781,469.9913 681.0781,470.4288 L681.0781,471.8506 C681.0781,472.2725 681.0469,472.46 680.9375,472.6163 C680.7656,472.835 680.5,472.9756 680.2344,472.9756 C680.0156,472.9756 679.7813,472.8663 679.6406,472.7256 C679.5,472.6006 679.4688,472.4756 679.4063,472.0694 C679.3125,471.6631 679.1406,471.4444 678.6563,471.1631 C678.1875,470.9131 677.5781,470.7569 677,470.7569 C675.2656,470.7569 674.0156,472.0694 674.0156,473.8506 L674.0156,474.9444 C674.0156,476.6475 675.3125,477.7413 677.3594,477.7413 C678.125,477.7413 678.8125,477.6163 679.2344,477.3506 C679.4219,477.2569 679.4219,477.2569 679.875,476.7725 C680.0625,476.585 680.2656,476.5069 680.4844,476.5069 C680.9531,476.5069 681.3438,476.8975 681.3438,477.3506 C681.3438,477.7413 681.0156,478.1944 680.4375,478.6006 C679.6875,479.1475 678.5313,479.4444 677.3125,479.4444 C674.4219,479.4444 672.3125,477.5538 672.3125,474.9756 L672.3125,473.8506 C672.3125,471.1319 674.3125,469.0538 676.9375,469.0538 C677.8125,469.0538 678.4063,469.1944 679.3438,469.6319 Z "/><text fill="#000000" font-family="sans-serif" font-size="12" lengthAdjust="spacingAndGlyphs" textLength="75" x="691" y="478.1143">LdapService</text><line style="stroke: #A80036; stroke-width: 1.5;" x1="663" x2="768" y1="489.96" y2="489.96"/><line style="stroke: #A80036; stroke-width: 1.5;" x1="663" x2="768" y1="497.96" y2="497.96"/><!--class LoginService--><rect fill="#FEFECE" filter="url(#f7cvdo2)" height="48" style="stroke: #A80036; stroke-width: 1.5;" width="110" x="425.5" y="353.96"/><ellipse cx="440.5" cy="369.96" fill="#ADD1B2" rx="11" ry="11" style="stroke: #A80036; stroke-width: 1.0;"/><path d="M442.8438,365.6319 L443.0156,365.71 C443.2344,365.3975 443.4375,365.3038 443.7344,365.3038 C444.0313,365.3038 444.3125,365.4444 444.4688,365.71 C444.5625,365.8663 444.5781,365.9913 444.5781,366.4288 L444.5781,367.8506 C444.5781,368.2725 444.5469,368.46 444.4375,368.6163 C444.2656,368.835 444,368.9756 443.7344,368.9756 C443.5156,368.9756 443.2813,368.8663 443.1406,368.7256 C443,368.6006 442.9688,368.4756 442.9063,368.0694 C442.8125,367.6631 442.6406,367.4444 442.1563,367.1631 C441.6875,366.9131 441.0781,366.7569 440.5,366.7569 C438.7656,366.7569 437.5156,368.0694 437.5156,369.8506 L437.5156,370.9444 C437.5156,372.6475 438.8125,373.7413 440.8594,373.7413 C441.625,373.7413 442.3125,373.6163 442.7344,373.3506 C442.9219,373.2569 442.9219,373.2569 443.375,372.7725 C443.5625,372.585 443.7656,372.5069 443.9844,372.5069 C444.4531,372.5069 444.8438,372.8975 444.8438,373.3506 C444.8438,373.7413 444.5156,374.1944 443.9375,374.6006 C443.1875,375.1475 442.0313,375.4444 440.8125,375.4444 C437.9219,375.4444 435.8125,373.5538 435.8125,370.9756 L435.8125,369.8506 C435.8125,367.1319 437.8125,365.0538 440.4375,365.0538 C441.3125,365.0538 441.9063,365.1944 442.8438,365.6319 Z "/><text fill="#000000" font-family="sans-serif" font-size="12" lengthAdjust="spacingAndGlyphs" textLength="78" x="454.5" y="374.1143">LoginService</text><line style="stroke: #A80036; stroke-width: 1.5;" x1="426.5" x2="534.5" y1="385.96" y2="385.96"/><line style="stroke: #A80036; stroke-width: 1.5;" x1="426.5" x2="534.5" y1="393.96" y2="393.96"/><!--class SkillService--><rect fill="#FEFECE" filter="url(#f7cvdo2)" height="48" style="stroke: #A80036; stroke-width: 1.5;" width="101" x="665" y="1037.96"/><ellipse cx="680" cy="1053.96" fill="#ADD1B2" rx="11" ry="11" style="stroke: #A80036; stroke-width: 1.0;"/><path d="M682.3438,1049.6319 L682.5156,1049.71 C682.7344,1049.3975 682.9375,1049.3038 683.2344,1049.3038 C683.5313,1049.3038 683.8125,1049.4444 683.9688,1049.71 C684.0625,1049.8663 684.0781,1049.9913 684.0781,1050.4288 L684.0781,1051.8506 C684.0781,1052.2725 684.0469,1052.46 683.9375,1052.6163 C683.7656,1052.835 683.5,1052.9756 683.2344,1052.9756 C683.0156,1052.9756 682.7813,1052.8663 682.6406,1052.7256 C682.5,1052.6006 682.4688,1052.4756 682.4063,1052.0694 C682.3125,1051.6631 682.1406,1051.4444 681.6563,1051.1631 C681.1875,1050.9131 680.5781,1050.7569 680,1050.7569 C678.2656,1050.7569 677.0156,1052.0694 677.0156,1053.8506 L677.0156,1054.9444 C677.0156,1056.6475 678.3125,1057.7413 680.3594,1057.7413 C681.125,1057.7413 681.8125,1057.6163 682.2344,1057.3506 C682.4219,1057.2569 682.4219,1057.2569 682.875,1056.7725 C683.0625,1056.585 683.2656,1056.5069 683.4844,1056.5069 C683.9531,1056.5069 684.3438,1056.8975 684.3438,1057.3506 C684.3438,1057.7413 684.0156,1058.1944 683.4375,1058.6006 C682.6875,1059.1475 681.5313,1059.4444 680.3125,1059.4444 C677.4219,1059.4444 675.3125,1057.5538 675.3125,1054.9756 L675.3125,1053.8506 C675.3125,1051.1319 677.3125,1049.0538 679.9375,1049.0538 C680.8125,1049.0538 681.4063,1049.1944 682.3438,1049.6319 Z "/><text fill="#000000" font-family="sans-serif" font-size="12" lengthAdjust="spacingAndGlyphs" textLength="69" x="694" y="1058.1143">SkillService</text><line style="stroke: #A80036; stroke-width: 1.5;" x1="666" x2="765" y1="1069.96" y2="1069.96"/><line style="stroke: #A80036; stroke-width: 1.5;" x1="666" x2="765" y1="1077.96" y2="1077.96"/><!--class PersonRepository--><rect fill="#FEFECE" filter="url(#f7cvdo2)" height="48" style="stroke: #A80036; stroke-width: 1.5;" width="142" x="924.5" y="611.96"/><ellipse cx="939.5" cy="627.96" fill="#ADD1B2" rx="11" ry="11" style="stroke: #A80036; stroke-width: 1.0;"/><path d="M941.8438,623.6319 L942.0156,623.71 C942.2344,623.3975 942.4375,623.3038 942.7344,623.3038 C943.0313,623.3038 943.3125,623.4444 943.4688,623.71 C943.5625,623.8663 943.5781,623.9913 943.5781,624.4288 L943.5781,625.8506 C943.5781,626.2725 943.5469,626.46 943.4375,626.6163 C943.2656,626.835 943,626.9756 942.7344,626.9756 C942.5156,626.9756 942.2813,626.8663 942.1406,626.7256 C942,626.6006 941.9688,626.4756 941.9063,626.0694 C941.8125,625.6631 941.6406,625.4444 941.1563,625.1631 C940.6875,624.9131 940.0781,624.7569 939.5,624.7569 C937.7656,624.7569 936.5156,626.0694 936.5156,627.8506 L936.5156,628.9444 C936.5156,630.6475 937.8125,631.7413 939.8594,631.7413 C940.625,631.7413 941.3125,631.6163 941.7344,631.3506 C941.9219,631.2569 941.9219,631.2569 942.375,630.7725 C942.5625,630.585 942.7656,630.5069 942.9844,630.5069 C943.4531,630.5069 943.8438,630.8975 943.8438,631.3506 C943.8438,631.7413 943.5156,632.1944 942.9375,632.6006 C942.1875,633.1475 941.0313,633.4444 939.8125,633.4444 C936.9219,633.4444 934.8125,631.5538 934.8125,628.9756 L934.8125,627.8506 C934.8125,625.1319 936.8125,623.0538 939.4375,623.0538 C940.3125,623.0538 940.9063,623.1944 941.8438,623.6319 Z "/><text fill="#000000" font-family="sans-serif" font-size="12" lengthAdjust="spacingAndGlyphs" textLength="110" x="953.5" y="632.1143">PersonRepository</text><line style="stroke: #A80036; stroke-width: 1.5;" x1="925.5" x2="1065.5" y1="643.96" y2="643.96"/><line style="stroke: #A80036; stroke-width: 1.5;" x1="925.5" x2="1065.5" y1="651.96" y2="651.96"/><!--class PersonalLDAPDetails--><rect fill="#FEFECE" filter="url(#f7cvdo2)" height="48" style="stroke: #A80036; stroke-width: 1.5;" width="161" x="1422.5" y="1168.964"/><ellipse cx="1437.5" cy="1184.964" fill="#ADD1B2" rx="11" ry="11" style="stroke: #A80036; stroke-width: 1.0;"/><path d="M1439.8438,1180.6359 L1440.0156,1180.714 C1440.2344,1180.4015 1440.4375,1180.3078 1440.7344,1180.3078 C1441.0313,1180.3078 1441.3125,1180.4484 1441.4688,1180.714 C1441.5625,1180.8703 1441.5781,1180.9953 1441.5781,1181.4328 L1441.5781,1182.8546 C1441.5781,1183.2765 1441.5469,1183.464 1441.4375,1183.6203 C1441.2656,1183.839 1441,1183.9796 1440.7344,1183.9796 C1440.5156,1183.9796 1440.2813,1183.8703 1440.1406,1183.7296 C1440,1183.6046 1439.9688,1183.4796 1439.9063,1183.0734 C1439.8125,1182.6671 1439.6406,1182.4484 1439.1563,1182.1671 C1438.6875,1181.9171 1438.0781,1181.7609 1437.5,1181.7609 C1435.7656,1181.7609 1434.5156,1183.0734 1434.5156,1184.8546 L1434.5156,1185.9484 C1434.5156,1187.6515 1435.8125,1188.7453 1437.8594,1188.7453 C1438.625,1188.7453 1439.3125,1188.6203 1439.7344,1188.3546 C1439.9219,1188.2609 1439.9219,1188.2609 1440.375,1187.7765 C1440.5625,1187.589 1440.7656,1187.5109 1440.9844,1187.5109 C1441.4531,1187.5109 1441.8438,1187.9015 1441.8438,1188.3546 C1441.8438,1188.7453 1441.5156,1189.1984 1440.9375,1189.6046 C1440.1875,1190.1515 1439.0313,1190.4484 1437.8125,1190.4484 C1434.9219,1190.4484 1432.8125,1188.5578 1432.8125,1185.9796 L1432.8125,1184.8546 C1432.8125,1182.1359 1434.8125,1180.0578 1437.4375,1180.0578 C1438.3125,1180.0578 1438.9063,1180.1984 1439.8438,1180.6359 Z "/><text fill="#000000" font-family="sans-serif" font-size="12" lengthAdjust="spacingAndGlyphs" textLength="129" x="1451.5" y="1189.1183">PersonalLDAPDetails</text><line style="stroke: #A80036; stroke-width: 1.5;" x1="1423.5" x2="1582.5" y1="1200.964" y2="1200.964"/><line style="stroke: #A80036; stroke-width: 1.5;" x1="1423.5" x2="1582.5" y1="1208.964" y2="1208.964"/><!--class KnownSkill--><rect fill="#FEFECE" filter="url(#f7cvdo2)" height="48" style="stroke: #A80036; stroke-width: 1.5;" width="96" x="1217" y="942.96"/><ellipse cx="1232" cy="958.96" fill="#ADD1B2" rx="11" ry="11" style="stroke: #A80036; stroke-width: 1.0;"/><path d="M1234.3438,954.6319 L1234.5156,954.71 C1234.7344,954.3975 1234.9375,954.3038 1235.2344,954.3038 C1235.5313,954.3038 1235.8125,954.4444 1235.9688,954.71 C1236.0625,954.8663 1236.0781,954.9913 1236.0781,955.4288 L1236.0781,956.8506 C1236.0781,957.2725 1236.0469,957.46 1235.9375,957.6163 C1235.7656,957.835 1235.5,957.9756 1235.2344,957.9756 C1235.0156,957.9756 1234.7813,957.8663 1234.6406,957.7256 C1234.5,957.6006 1234.4688,957.4756 1234.4063,957.0694 C1234.3125,956.6631 1234.1406,956.4444 1233.6563,956.1631 C1233.1875,955.9131 1232.5781,955.7569 1232,955.7569 C1230.2656,955.7569 1229.0156,957.0694 1229.0156,958.8506 L1229.0156,959.9444 C1229.0156,961.6475 1230.3125,962.7413 1232.3594,962.7413 C1233.125,962.7413 1233.8125,962.6163 1234.2344,962.3506 C1234.4219,962.2569 1234.4219,962.2569 1234.875,961.7725 C1235.0625,961.585 1235.2656,961.5069 1235.4844,961.5069 C1235.9531,961.5069 1236.3438,961.8975 1236.3438,962.3506 C1236.3438,962.7413 1236.0156,963.1944 1235.4375,963.6006 C1234.6875,964.1475 1233.5313,964.4444 1232.3125,964.4444 C1229.4219,964.4444 1227.3125,962.5538 1227.3125,959.9756 L1227.3125,958.8506 C1227.3125,956.1319 1229.3125,954.0538 1231.9375,954.0538 C1232.8125,954.0538 1233.4063,954.1944 1234.3438,954.6319 Z "/><text fill="#000000" font-family="sans-serif" font-size="12" lengthAdjust="spacingAndGlyphs" textLength="64" x="1246" y="963.1143">KnownSkill</text><line style="stroke: #A80036; stroke-width: 1.5;" x1="1218" x2="1312" y1="974.96" y2="974.96"/><line style="stroke: #A80036; stroke-width: 1.5;" x1="1218" x2="1312" y1="982.96" y2="982.96"/><!--class KnownSkillSuggestionComparator--><rect fill="#FEFECE" filter="url(#f7cvdo2)" height="48" style="stroke: #A80036; stroke-width: 1.5;" width="241" x="875" y="1036.96"/><ellipse cx="890" cy="1052.96" fill="#ADD1B2" rx="11" ry="11" style="stroke: #A80036; stroke-width: 1.0;"/><path d="M892.3438,1048.6319 L892.5156,1048.71 C892.7344,1048.3975 892.9375,1048.3038 893.2344,1048.3038 C893.5313,1048.3038 893.8125,1048.4444 893.9688,1048.71 C894.0625,1048.8663 894.0781,1048.9913 894.0781,1049.4288 L894.0781,1050.8506 C894.0781,1051.2725 894.0469,1051.46 893.9375,1051.6163 C893.7656,1051.835 893.5,1051.9756 893.2344,1051.9756 C893.0156,1051.9756 892.7813,1051.8663 892.6406,1051.7256 C892.5,1051.6006 892.4688,1051.4756 892.4063,1051.0694 C892.3125,1050.6631 892.1406,1050.4444 891.6563,1050.1631 C891.1875,1049.9131 890.5781,1049.7569 890,1049.7569 C888.2656,1049.7569 887.0156,1051.0694 887.0156,1052.8506 L887.0156,1053.9444 C887.0156,1055.6475 888.3125,1056.7413 890.3594,1056.7413 C891.125,1056.7413 891.8125,1056.6163 892.2344,1056.3506 C892.4219,1056.2569 892.4219,1056.2569 892.875,1055.7725 C893.0625,1055.585 893.2656,1055.5069 893.4844,1055.5069 C893.9531,1055.5069 894.3438,1055.8975 894.3438,1056.3506 C894.3438,1056.7413 894.0156,1057.1944 893.4375,1057.6006 C892.6875,1058.1475 891.5313,1058.4444 890.3125,1058.4444 C887.4219,1058.4444 885.3125,1056.5538 885.3125,1053.9756 L885.3125,1052.8506 C885.3125,1050.1319 887.3125,1048.0538 889.9375,1048.0538 C890.8125,1048.0538 891.4063,1048.1944 892.3438,1048.6319 Z "/><text fill="#000000" font-family="sans-serif" font-size="12" lengthAdjust="spacingAndGlyphs" textLength="209" x="904" y="1057.1143">KnownSkillSuggestionComparator</text><line style="stroke: #A80036; stroke-width: 1.5;" x1="876" x2="1115" y1="1068.96" y2="1068.96"/><line style="stroke: #A80036; stroke-width: 1.5;" x1="876" x2="1115" y1="1076.96" y2="1076.96"/><!--class SkillsRepository--><rect fill="#FEFECE" filter="url(#f7cvdo2)" height="48" style="stroke: #A80036; stroke-width: 1.5;" width="129" x="931" y="765.96"/><ellipse cx="946" cy="781.96" fill="#ADD1B2" rx="11" ry="11" style="stroke: #A80036; stroke-width: 1.0;"/><path d="M948.3438,777.6319 L948.5156,777.71 C948.7344,777.3975 948.9375,777.3038 949.2344,777.3038 C949.5313,777.3038 949.8125,777.4444 949.9688,777.71 C950.0625,777.8663 950.0781,777.9913 950.0781,778.4288 L950.0781,779.8506 C950.0781,780.2725 950.0469,780.46 949.9375,780.6163 C949.7656,780.835 949.5,780.9756 949.2344,780.9756 C949.0156,780.9756 948.7813,780.8663 948.6406,780.7256 C948.5,780.6006 948.4688,780.4756 948.4063,780.0694 C948.3125,779.6631 948.1406,779.4444 947.6563,779.1631 C947.1875,778.9131 946.5781,778.7569 946,778.7569 C944.2656,778.7569 943.0156,780.0694 943.0156,781.8506 L943.0156,782.9444 C943.0156,784.6475 944.3125,785.7413 946.3594,785.7413 C947.125,785.7413 947.8125,785.6163 948.2344,785.3506 C948.4219,785.2569 948.4219,785.2569 948.875,784.7725 C949.0625,784.585 949.2656,784.5069 949.4844,784.5069 C949.9531,784.5069 950.3438,784.8975 950.3438,785.3506 C950.3438,785.7413 950.0156,786.1944 949.4375,786.6006 C948.6875,787.1475 947.5313,787.4444 946.3125,787.4444 C943.4219,787.4444 941.3125,785.5538 941.3125,782.9756 L941.3125,781.8506 C941.3125,779.1319 943.3125,777.0538 945.9375,777.0538 C946.8125,777.0538 947.4063,777.1944 948.3438,777.6319 Z "/><text fill="#000000" font-family="sans-serif" font-size="12" lengthAdjust="spacingAndGlyphs" textLength="97" x="960" y="786.1143">SkillsRepository</text><line style="stroke: #A80036; stroke-width: 1.5;" x1="932" x2="1059" y1="797.96" y2="797.96"/><line style="stroke: #A80036; stroke-width: 1.5;" x1="932" x2="1059" y1="805.96" y2="805.96"/><!--class PersonalSkill--><rect fill="#FEFECE" filter="url(#f7cvdo2)" height="48" style="stroke: #A80036; stroke-width: 1.5;" width="111" x="1447.5" y="1557.964"/><ellipse cx="1462.5" cy="1573.964" fill="#ADD1B2" rx="11" ry="11" style="stroke: #A80036; stroke-width: 1.0;"/><path d="M1464.8438,1569.6359 L1465.0156,1569.714 C1465.2344,1569.4015 1465.4375,1569.3078 1465.7344,1569.3078 C1466.0313,1569.3078 1466.3125,1569.4484 1466.4688,1569.714 C1466.5625,1569.8703 1466.5781,1569.9953 1466.5781,1570.4328 L1466.5781,1571.8546 C1466.5781,1572.2765 1466.5469,1572.464 1466.4375,1572.6203 C1466.2656,1572.839 1466,1572.9796 1465.7344,1572.9796 C1465.5156,1572.9796 1465.2813,1572.8703 1465.1406,1572.7296 C1465,1572.6046 1464.9688,1572.4796 1464.9063,1572.0734 C1464.8125,1571.6671 1464.6406,1571.4484 1464.1563,1571.1671 C1463.6875,1570.9171 1463.0781,1570.7609 1462.5,1570.7609 C1460.7656,1570.7609 1459.5156,1572.0734 1459.5156,1573.8546 L1459.5156,1574.9484 C1459.5156,1576.6515 1460.8125,1577.7453 1462.8594,1577.7453 C1463.625,1577.7453 1464.3125,1577.6203 1464.7344,1577.3546 C1464.9219,1577.2609 1464.9219,1577.2609 1465.375,1576.7765 C1465.5625,1576.589 1465.7656,1576.5109 1465.9844,1576.5109 C1466.4531,1576.5109 1466.8438,1576.9015 1466.8438,1577.3546 C1466.8438,1577.7453 1466.5156,1578.1984 1465.9375,1578.6046 C1465.1875,1579.1515 1464.0313,1579.4484 1462.8125,1579.4484 C1459.9219,1579.4484 1457.8125,1577.5578 1457.8125,1574.9796 L1457.8125,1573.8546 C1457.8125,1571.1359 1459.8125,1569.0578 1462.4375,1569.0578 C1463.3125,1569.0578 1463.9063,1569.1984 1464.8438,1569.6359 Z "/><text fill="#000000" font-family="sans-serif" font-size="12" lengthAdjust="spacingAndGlyphs" textLength="79" x="1476.5" y="1578.1183">PersonalSkill</text><line style="stroke: #A80036; stroke-width: 1.5;" x1="1448.5" x2="1557.5" y1="1589.964" y2="1589.964"/><line style="stroke: #A80036; stroke-width: 1.5;" x1="1448.5" x2="1557.5" y1="1597.964" y2="1597.964"/><!--class SuggestionSkill--><rect fill="#FEFECE" filter="url(#f7cvdo2)" height="48" style="stroke: #A80036; stroke-width: 1.5;" width="127" x="1439.5" y="1028.96"/><ellipse cx="1454.5" cy="1044.96" fill="#ADD1B2" rx="11" ry="11" style="stroke: #A80036; stroke-width: 1.0;"/><path d="M1456.8438,1040.6319 L1457.0156,1040.71 C1457.2344,1040.3975 1457.4375,1040.3038 1457.7344,1040.3038 C1458.0313,1040.3038 1458.3125,1040.4444 1458.4688,1040.71 C1458.5625,1040.8663 1458.5781,1040.9913 1458.5781,1041.4288 L1458.5781,1042.8506 C1458.5781,1043.2725 1458.5469,1043.46 1458.4375,1043.6163 C1458.2656,1043.835 1458,1043.9756 1457.7344,1043.9756 C1457.5156,1043.9756 1457.2813,1043.8663 1457.1406,1043.7256 C1457,1043.6006 1456.9688,1043.4756 1456.9063,1043.0694 C1456.8125,1042.6631 1456.6406,1042.4444 1456.1563,1042.1631 C1455.6875,1041.9131 1455.0781,1041.7569 1454.5,1041.7569 C1452.7656,1041.7569 1451.5156,1043.0694 1451.5156,1044.8506 L1451.5156,1045.9444 C1451.5156,1047.6475 1452.8125,1048.7413 1454.8594,1048.7413 C1455.625,1048.7413 1456.3125,1048.6163 1456.7344,1048.3506 C1456.9219,1048.2569 1456.9219,1048.2569 1457.375,1047.7725 C1457.5625,1047.585 1457.7656,1047.5069 1457.9844,1047.5069 C1458.4531,1047.5069 1458.8438,1047.8975 1458.8438,1048.3506 C1458.8438,1048.7413 1458.5156,1049.1944 1457.9375,1049.6006 C1457.1875,1050.1475 1456.0313,1050.4444 1454.8125,1050.4444 C1451.9219,1050.4444 1449.8125,1048.5538 1449.8125,1045.9756 L1449.8125,1044.8506 C1449.8125,1042.1319 1451.8125,1040.0538 1454.4375,1040.0538 C1455.3125,1040.0538 1455.9063,1040.1944 1456.8438,1040.6319 Z "/><text fill="#000000" font-family="sans-serif" font-size="12" lengthAdjust="spacingAndGlyphs" textLength="95" x="1468.5" y="1049.1143">SuggestionSkill</text><line style="stroke: #A80036; stroke-width: 1.5;" x1="1440.5" x2="1565.5" y1="1060.96" y2="1060.96"/><line style="stroke: #A80036; stroke-width: 1.5;" x1="1440.5" x2="1565.5" y1="1068.96" y2="1068.96"/><!--class CredentialsException--><rect fill="#FEFECE" filter="url(#f7cvdo2)" height="48" style="stroke: #A80036; stroke-width: 1.5;" width="164" x="633.5" y="7.96"/><ellipse cx="648.5" cy="23.96" fill="#ADD1B2" rx="11" ry="11" style="stroke: #A80036; stroke-width: 1.0;"/><path d="M650.8438,19.6319 L651.0156,19.71 C651.2344,19.3975 651.4375,19.3038 651.7344,19.3038 C652.0313,19.3038 652.3125,19.4444 652.4688,19.71 C652.5625,19.8663 652.5781,19.9913 652.5781,20.4288 L652.5781,21.8506 C652.5781,22.2725 652.5469,22.46 652.4375,22.6163 C652.2656,22.835 652,22.9756 651.7344,22.9756 C651.5156,22.9756 651.2813,22.8663 651.1406,22.7256 C651,22.6006 650.9688,22.4756 650.9063,22.0694 C650.8125,21.6631 650.6406,21.4444 650.1563,21.1631 C649.6875,20.9131 649.0781,20.7569 648.5,20.7569 C646.7656,20.7569 645.5156,22.0694 645.5156,23.8506 L645.5156,24.9444 C645.5156,26.6475 646.8125,27.7413 648.8594,27.7413 C649.625,27.7413 650.3125,27.6163 650.7344,27.3506 C650.9219,27.2569 650.9219,27.2569 651.375,26.7725 C651.5625,26.585 651.7656,26.5069 651.9844,26.5069 C652.4531,26.5069 652.8438,26.8975 652.8438,27.3506 C652.8438,27.7413 652.5156,28.1944 651.9375,28.6006 C651.1875,29.1475 650.0313,29.4444 648.8125,29.4444 C645.9219,29.4444 643.8125,27.5538 643.8125,24.9756 L643.8125,23.8506 C643.8125,21.1319 645.8125,19.0538 648.4375,19.0538 C649.3125,19.0538 649.9063,19.1944 650.8438,19.6319 Z "/><text fill="#000000" font-family="sans-serif" font-size="12" lengthAdjust="spacingAndGlyphs" textLength="132" x="662.5" y="28.1143">CredentialsException</text><line style="stroke: #A80036; stroke-width: 1.5;" x1="634.5" x2="796.5" y1="39.96" y2="39.96"/><line style="stroke: #A80036; stroke-width: 1.5;" x1="634.5" x2="796.5" y1="47.96" y2="47.96"/><!--class DuplicateSkillException--><rect fill="#FEFECE" filter="url(#f7cvdo2)" height="48" style="stroke: #A80036; stroke-width: 1.5;" width="176" x="907.5" y="848.96"/><ellipse cx="922.5" cy="864.96" fill="#ADD1B2" rx="11" ry="11" style="stroke: #A80036; stroke-width: 1.0;"/><path d="M924.8438,860.6319 L925.0156,860.71 C925.2344,860.3975 925.4375,860.3038 925.7344,860.3038 C926.0313,860.3038 926.3125,860.4444 926.4688,860.71 C926.5625,860.8663 926.5781,860.9913 926.5781,861.4288 L926.5781,862.8506 C926.5781,863.2725 926.5469,863.46 926.4375,863.6163 C926.2656,863.835 926,863.9756 925.7344,863.9756 C925.5156,863.9756 925.2813,863.8663 925.1406,863.7256 C925,863.6006 924.9688,863.4756 924.9063,863.0694 C924.8125,862.6631 924.6406,862.4444 924.1563,862.1631 C923.6875,861.9131 923.0781,861.7569 922.5,861.7569 C920.7656,861.7569 919.5156,863.0694 919.5156,864.8506 L919.5156,865.9444 C919.5156,867.6475 920.8125,868.7413 922.8594,868.7413 C923.625,868.7413 924.3125,868.6163 924.7344,868.3506 C924.9219,868.2569 924.9219,868.2569 925.375,867.7725 C925.5625,867.585 925.7656,867.5069 925.9844,867.5069 C926.4531,867.5069 926.8438,867.8975 926.8438,868.3506 C926.8438,868.7413 926.5156,869.1944 925.9375,869.6006 C925.1875,870.1475 924.0313,870.4444 922.8125,870.4444 C919.9219,870.4444 917.8125,868.5538 917.8125,865.9756 L917.8125,864.8506 C917.8125,862.1319 919.8125,860.0538 922.4375,860.0538 C923.3125,860.0538 923.9063,860.1944 924.8438,860.6319 Z "/><text fill="#000000" font-family="sans-serif" font-size="12" lengthAdjust="spacingAndGlyphs" textLength="144" x="936.5" y="869.1143">DuplicateSkillException</text><line style="stroke: #A80036; stroke-width: 1.5;" x1="908.5" x2="1082.5" y1="880.96" y2="880.96"/><line style="stroke: #A80036; stroke-width: 1.5;" x1="908.5" x2="1082.5" y1="888.96" y2="888.96"/><!--class EmptyArgumentException--><rect fill="#FEFECE" filter="url(#f7cvdo2)" height="48" style="stroke: #A80036; stroke-width: 1.5;" width="192" x="899.5" y="1261.964"/><ellipse cx="914.5" cy="1277.964" fill="#ADD1B2" rx="11" ry="11" style="stroke: #A80036; stroke-width: 1.0;"/><path d="M916.8438,1273.6359 L917.0156,1273.714 C917.2344,1273.4015 917.4375,1273.3078 917.7344,1273.3078 C918.0313,1273.3078 918.3125,1273.4484 918.4688,1273.714 C918.5625,1273.8703 918.5781,1273.9953 918.5781,1274.4328 L918.5781,1275.8546 C918.5781,1276.2765 918.5469,1276.464 918.4375,1276.6203 C918.2656,1276.839 918,1276.9796 917.7344,1276.9796 C917.5156,1276.9796 917.2813,1276.8703 917.1406,1276.7296 C917,1276.6046 916.9688,1276.4796 916.9063,1276.0734 C916.8125,1275.6671 916.6406,1275.4484 916.1563,1275.1671 C915.6875,1274.9171 915.0781,1274.7609 914.5,1274.7609 C912.7656,1274.7609 911.5156,1276.0734 911.5156,1277.8546 L911.5156,1278.9484 C911.5156,1280.6515 912.8125,1281.7453 914.8594,1281.7453 C915.625,1281.7453 916.3125,1281.6203 916.7344,1281.3546 C916.9219,1281.2609 916.9219,1281.2609 917.375,1280.7765 C917.5625,1280.589 917.7656,1280.5109 917.9844,1280.5109 C918.4531,1280.5109 918.8438,1280.9015 918.8438,1281.3546 C918.8438,1281.7453 918.5156,1282.1984 917.9375,1282.6046 C917.1875,1283.1515 916.0313,1283.4484 914.8125,1283.4484 C911.9219,1283.4484 909.8125,1281.5578 909.8125,1278.9796 L909.8125,1277.8546 C909.8125,1275.1359 911.8125,1273.0578 914.4375,1273.0578 C915.3125,1273.0578 915.9063,1273.1984 916.8438,1273.6359 Z "/><text fill="#000000" font-family="sans-serif" font-size="12" lengthAdjust="spacingAndGlyphs" textLength="160" x="928.5" y="1282.1183">EmptyArgumentException</text><line style="stroke: #A80036; stroke-width: 1.5;" x1="900.5" x2="1090.5" y1="1293.964" y2="1293.964"/><line style="stroke: #A80036; stroke-width: 1.5;" x1="900.5" x2="1090.5" y1="1301.964" y2="1301.964"/><!--class LevelOutOfRangeException--><rect fill="#FEFECE" filter="url(#f7cvdo2)" height="48" style="stroke: #A80036; stroke-width: 1.5;" width="199" x="616" y="1415.964"/><ellipse cx="631" cy="1431.964" fill="#ADD1B2" rx="11" ry="11" style="stroke: #A80036; stroke-width: 1.0;"/><path d="M633.3438,1427.6359 L633.5156,1427.714 C633.7344,1427.4015 633.9375,1427.3078 634.2344,1427.3078 C634.5313,1427.3078 634.8125,1427.4484 634.9688,1427.714 C635.0625,1427.8703 635.0781,1427.9953 635.0781,1428.4328 L635.0781,1429.8546 C635.0781,1430.2765 635.0469,1430.464 634.9375,1430.6203 C634.7656,1430.839 634.5,1430.9796 634.2344,1430.9796 C634.0156,1430.9796 633.7813,1430.8703 633.6406,1430.7296 C633.5,1430.6046 633.4688,1430.4796 633.4063,1430.0734 C633.3125,1429.6671 633.1406,1429.4484 632.6563,1429.1671 C632.1875,1428.9171 631.5781,1428.7609 631,1428.7609 C629.2656,1428.7609 628.0156,1430.0734 628.0156,1431.8546 L628.0156,1432.9484 C628.0156,1434.6515 629.3125,1435.7453 631.3594,1435.7453 C632.125,1435.7453 632.8125,1435.6203 633.2344,1435.3546 C633.4219,1435.2609 633.4219,1435.2609 633.875,1434.7765 C634.0625,1434.589 634.2656,1434.5109 634.4844,1434.5109 C634.9531,1434.5109 635.3438,1434.9015 635.3438,1435.3546 C635.3438,1435.7453 635.0156,1436.1984 634.4375,1436.6046 C633.6875,1437.1515 632.5313,1437.4484 631.3125,1437.4484 C628.4219,1437.4484 626.3125,1435.5578 626.3125,1432.9796 L626.3125,1431.8546 C626.3125,1429.1359 628.3125,1427.0578 630.9375,1427.0578 C631.8125,1427.0578 632.4063,1427.1984 633.3438,1427.6359 Z "/><text fill="#000000" font-family="sans-serif" font-size="12" lengthAdjust="spacingAndGlyphs" textLength="167" x="645" y="1436.1183">LevelOutOfRangeException</text><line style="stroke: #A80036; stroke-width: 1.5;" x1="617" x2="814" y1="1447.964" y2="1447.964"/><line style="stroke: #A80036; stroke-width: 1.5;" x1="617" x2="814" y1="1455.964" y2="1455.964"/><!--class SkillNotFoundException--><rect fill="#FEFECE" filter="url(#f7cvdo2)" height="48" style="stroke: #A80036; stroke-width: 1.5;" width="178" x="1414" y="1474.964"/><ellipse cx="1429" cy="1490.964" fill="#ADD1B2" rx="11" ry="11" style="stroke: #A80036; stroke-width: 1.0;"/><path d="M1431.3438,1486.6359 L1431.5156,1486.714 C1431.7344,1486.4015 1431.9375,1486.3078 1432.2344,1486.3078 C1432.5313,1486.3078 1432.8125,1486.4484 1432.9688,1486.714 C1433.0625,1486.8703 1433.0781,1486.9953 1433.0781,1487.4328 L1433.0781,1488.8546 C1433.0781,1489.2765 1433.0469,1489.464 1432.9375,1489.6203 C1432.7656,1489.839 1432.5,1489.9796 1432.2344,1489.9796 C1432.0156,1489.9796 1431.7813,1489.8703 1431.6406,1489.7296 C1431.5,1489.6046 1431.4688,1489.4796 1431.4063,1489.0734 C1431.3125,1488.6671 1431.1406,1488.4484 1430.6563,1488.1671 C1430.1875,1487.9171 1429.5781,1487.7609 1429,1487.7609 C1427.2656,1487.7609 1426.0156,1489.0734 1426.0156,1490.8546 L1426.0156,1491.9484 C1426.0156,1493.6515 1427.3125,1494.7453 1429.3594,1494.7453 C1430.125,1494.7453 1430.8125,1494.6203 1431.2344,1494.3546 C1431.4219,1494.2609 1431.4219,1494.2609 1431.875,1493.7765 C1432.0625,1493.589 1432.2656,1493.5109 1432.4844,1493.5109 C1432.9531,1493.5109 1433.3438,1493.9015 1433.3438,1494.3546 C1433.3438,1494.7453 1433.0156,1495.1984 1432.4375,1495.6046 C1431.6875,1496.1515 1430.5313,1496.4484 1429.3125,1496.4484 C1426.4219,1496.4484 1424.3125,1494.5578 1424.3125,1491.9796 L1424.3125,1490.8546 C1424.3125,1488.1359 1426.3125,1486.0578 1428.9375,1486.0578 C1429.8125,1486.0578 1430.4063,1486.1984 1431.3438,1486.6359 Z "/><text fill="#000000" font-family="sans-serif" font-size="12" lengthAdjust="spacingAndGlyphs" textLength="146" x="1443" y="1495.1183">SkillNotFoundException</text><line style="stroke: #A80036; stroke-width: 1.5;" x1="1415" x2="1591" y1="1506.964" y2="1506.964"/><line style="stroke: #A80036; stroke-width: 1.5;" x1="1415" x2="1591" y1="1514.964" y2="1514.964"/><!--class UserNotFoundException--><rect fill="#FEFECE" filter="url(#f7cvdo2)" height="48" style="stroke: #A80036; stroke-width: 1.5;" width="183" x="624" y="1928.964"/><ellipse cx="639" cy="1944.964" fill="#ADD1B2" rx="11" ry="11" style="stroke: #A80036; stroke-width: 1.0;"/><path d="M641.3438,1940.6359 L641.5156,1940.714 C641.7344,1940.4015 641.9375,1940.3078 642.2344,1940.3078 C642.5313,1940.3078 642.8125,1940.4484 642.9688,1940.714 C643.0625,1940.8703 643.0781,1940.9953 643.0781,1941.4328 L643.0781,1942.8546 C643.0781,1943.2765 643.0469,1943.464 642.9375,1943.6203 C642.7656,1943.839 642.5,1943.9796 642.2344,1943.9796 C642.0156,1943.9796 641.7813,1943.8703 641.6406,1943.7296 C641.5,1943.6046 641.4688,1943.4796 641.4063,1943.0734 C641.3125,1942.6671 641.1406,1942.4484 640.6563,1942.1671 C640.1875,1941.9171 639.5781,1941.7609 639,1941.7609 C637.2656,1941.7609 636.0156,1943.0734 636.0156,1944.8546 L636.0156,1945.9484 C636.0156,1947.6515 637.3125,1948.7453 639.3594,1948.7453 C640.125,1948.7453 640.8125,1948.6203 641.2344,1948.3546 C641.4219,1948.2609 641.4219,1948.2609 641.875,1947.7765 C642.0625,1947.589 642.2656,1947.5109 642.4844,1947.5109 C642.9531,1947.5109 643.3438,1947.9015 643.3438,1948.3546 C643.3438,1948.7453 643.0156,1949.1984 642.4375,1949.6046 C641.6875,1950.1515 640.5313,1950.4484 639.3125,1950.4484 C636.4219,1950.4484 634.3125,1948.5578 634.3125,1945.9796 L634.3125,1944.8546 C634.3125,1942.1359 636.3125,1940.0578 638.9375,1940.0578 C639.8125,1940.0578 640.4063,1940.1984 641.3438,1940.6359 Z "/><text fill="#000000" font-family="sans-serif" font-size="12" lengthAdjust="spacingAndGlyphs" textLength="151" x="653" y="1949.1183">UserNotFoundException</text><line style="stroke: #A80036; stroke-width: 1.5;" x1="625" x2="806" y1="1960.964" y2="1960.964"/><line style="stroke: #A80036; stroke-width: 1.5;" x1="625" x2="806" y1="1968.964" y2="1968.964"/><!--class EmbeddedLdap--><rect fill="#FEFECE" filter="url(#f7cvdo2)" height="48" style="stroke: #A80036; stroke-width: 1.5;" width="129" x="931" y="457.96"/><ellipse cx="946" cy="473.96" fill="#ADD1B2" rx="11" ry="11" style="stroke: #A80036; stroke-width: 1.0;"/><path d="M948.3438,469.6319 L948.5156,469.71 C948.7344,469.3975 948.9375,469.3038 949.2344,469.3038 C949.5313,469.3038 949.8125,469.4444 949.9688,469.71 C950.0625,469.8663 950.0781,469.9913 950.0781,470.4288 L950.0781,471.8506 C950.0781,472.2725 950.0469,472.46 949.9375,472.6163 C949.7656,472.835 949.5,472.9756 949.2344,472.9756 C949.0156,472.9756 948.7813,472.8663 948.6406,472.7256 C948.5,472.6006 948.4688,472.4756 948.4063,472.0694 C948.3125,471.6631 948.1406,471.4444 947.6563,471.1631 C947.1875,470.9131 946.5781,470.7569 946,470.7569 C944.2656,470.7569 943.0156,472.0694 943.0156,473.8506 L943.0156,474.9444 C943.0156,476.6475 944.3125,477.7413 946.3594,477.7413 C947.125,477.7413 947.8125,477.6163 948.2344,477.3506 C948.4219,477.2569 948.4219,477.2569 948.875,476.7725 C949.0625,476.585 949.2656,476.5069 949.4844,476.5069 C949.9531,476.5069 950.3438,476.8975 950.3438,477.3506 C950.3438,477.7413 950.0156,478.1944 949.4375,478.6006 C948.6875,479.1475 947.5313,479.4444 946.3125,479.4444 C943.4219,479.4444 941.3125,477.5538 941.3125,474.9756 L941.3125,473.8506 C941.3125,471.1319 943.3125,469.0538 945.9375,469.0538 C946.8125,469.0538 947.4063,469.1944 948.3438,469.6319 Z "/><text fill="#000000" font-family="sans-serif" font-size="12" lengthAdjust="spacingAndGlyphs" textLength="97" x="960" y="478.1143">EmbeddedLdap</text><line style="stroke: #A80036; stroke-width: 1.5;" x1="932" x2="1059" y1="489.96" y2="489.96"/><line style="stroke: #A80036; stroke-width: 1.5;" x1="932" x2="1059" y1="497.96" y2="497.96"/><!--class StatusJSON--><rect fill="#FEFECE" filter="url(#f7cvdo2)" height="48" style="stroke: #A80036; stroke-width: 1.5;" width="102" x="429.5" y="1179.964"/><ellipse cx="444.5" cy="1195.964" fill="#ADD1B2" rx="11" ry="11" style="stroke: #A80036; stroke-width: 1.0;"/><path d="M446.8438,1191.6359 L447.0156,1191.714 C447.2344,1191.4015 447.4375,1191.3078 447.7344,1191.3078 C448.0313,1191.3078 448.3125,1191.4484 448.4688,1191.714 C448.5625,1191.8703 448.5781,1191.9953 448.5781,1192.4328 L448.5781,1193.8546 C448.5781,1194.2765 448.5469,1194.464 448.4375,1194.6203 C448.2656,1194.839 448,1194.9796 447.7344,1194.9796 C447.5156,1194.9796 447.2813,1194.8703 447.1406,1194.7296 C447,1194.6046 446.9688,1194.4796 446.9063,1194.0734 C446.8125,1193.6671 446.6406,1193.4484 446.1563,1193.1671 C445.6875,1192.9171 445.0781,1192.7609 444.5,1192.7609 C442.7656,1192.7609 441.5156,1194.0734 441.5156,1195.8546 L441.5156,1196.9484 C441.5156,1198.6515 442.8125,1199.7453 444.8594,1199.7453 C445.625,1199.7453 446.3125,1199.6203 446.7344,1199.3546 C446.9219,1199.2609 446.9219,1199.2609 447.375,1198.7765 C447.5625,1198.589 447.7656,1198.5109 447.9844,1198.5109 C448.4531,1198.5109 448.8438,1198.9015 448.8438,1199.3546 C448.8438,1199.7453 448.5156,1200.1984 447.9375,1200.6046 C447.1875,1201.1515 446.0313,1201.4484 444.8125,1201.4484 C441.9219,1201.4484 439.8125,1199.5578 439.8125,1196.9796 L439.8125,1195.8546 C439.8125,1193.1359 441.8125,1191.0578 444.4375,1191.0578 C445.3125,1191.0578 445.9063,1191.1984 446.8438,1191.6359 Z "/><text fill="#000000" font-family="sans-serif" font-size="12" lengthAdjust="spacingAndGlyphs" textLength="70" x="458.5" y="1200.1183">StatusJSON</text><line style="stroke: #A80036; stroke-width: 1.5;" x1="430.5" x2="530.5" y1="1211.964" y2="1211.964"/><line style="stroke: #A80036; stroke-width: 1.5;" x1="430.5" x2="530.5" y1="1219.964" y2="1219.964"/><!--class SessionService--><rect fill="#FEFECE" filter="url(#f7cvdo2)" height="48" style="stroke: #A80036; stroke-width: 1.5;" width="126" x="652.5" y="90.96"/><ellipse cx="667.5" cy="106.96" fill="#ADD1B2" rx="11" ry="11" style="stroke: #A80036; stroke-width: 1.0;"/><path d="M669.8438,102.6319 L670.0156,102.71 C670.2344,102.3975 670.4375,102.3038 670.7344,102.3038 C671.0313,102.3038 671.3125,102.4444 671.4688,102.71 C671.5625,102.8663 671.5781,102.9913 671.5781,103.4288 L671.5781,104.8506 C671.5781,105.2725 671.5469,105.46 671.4375,105.6163 C671.2656,105.835 671,105.9756 670.7344,105.9756 C670.5156,105.9756 670.2813,105.8663 670.1406,105.7256 C670,105.6006 669.9688,105.4756 669.9063,105.0694 C669.8125,104.6631 669.6406,104.4444 669.1563,104.1631 C668.6875,103.9131 668.0781,103.7569 667.5,103.7569 C665.7656,103.7569 664.5156,105.0694 664.5156,106.8506 L664.5156,107.9444 C664.5156,109.6475 665.8125,110.7413 667.8594,110.7413 C668.625,110.7413 669.3125,110.6163 669.7344,110.3506 C669.9219,110.2569 669.9219,110.2569 670.375,109.7725 C670.5625,109.585 670.7656,109.5069 670.9844,109.5069 C671.4531,109.5069 671.8438,109.8975 671.8438,110.3506 C671.8438,110.7413 671.5156,111.1944 670.9375,111.6006 C670.1875,112.1475 669.0313,112.4444 667.8125,112.4444 C664.9219,112.4444 662.8125,110.5538 662.8125,107.9756 L662.8125,106.8506 C662.8125,104.1319 664.8125,102.0538 667.4375,102.0538 C668.3125,102.0538 668.9063,102.1944 669.8438,102.6319 Z "/><text fill="#000000" font-family="sans-serif" font-size="12" lengthAdjust="spacingAndGlyphs" textLength="94" x="681.5" y="111.1143">SessionService</text><line style="stroke: #A80036; stroke-width: 1.5;" x1="653.5" x2="777.5" y1="122.96" y2="122.96"/><line style="stroke: #A80036; stroke-width: 1.5;" x1="653.5" x2="777.5" y1="130.96" y2="130.96"/><!--class SessionRepository--><rect fill="#FEFECE" filter="url(#f7cvdo2)" height="48" style="stroke: #A80036; stroke-width: 1.5;" width="147" x="922" y="16.96"/><ellipse cx="937" cy="32.96" fill="#ADD1B2" rx="11" ry="11" style="stroke: #A80036; stroke-width: 1.0;"/><path d="M939.3438,28.6319 L939.5156,28.71 C939.7344,28.3975 939.9375,28.3038 940.2344,28.3038 C940.5313,28.3038 940.8125,28.4444 940.9688,28.71 C941.0625,28.8663 941.0781,28.9913 941.0781,29.4288 L941.0781,30.8506 C941.0781,31.2725 941.0469,31.46 940.9375,31.6163 C940.7656,31.835 940.5,31.9756 940.2344,31.9756 C940.0156,31.9756 939.7813,31.8663 939.6406,31.7256 C939.5,31.6006 939.4688,31.4756 939.4063,31.0694 C939.3125,30.6631 939.1406,30.4444 938.6563,30.1631 C938.1875,29.9131 937.5781,29.7569 937,29.7569 C935.2656,29.7569 934.0156,31.0694 934.0156,32.8506 L934.0156,33.9444 C934.0156,35.6475 935.3125,36.7413 937.3594,36.7413 C938.125,36.7413 938.8125,36.6163 939.2344,36.3506 C939.4219,36.2569 939.4219,36.2569 939.875,35.7725 C940.0625,35.585 940.2656,35.5069 940.4844,35.5069 C940.9531,35.5069 941.3438,35.8975 941.3438,36.3506 C941.3438,36.7413 941.0156,37.1944 940.4375,37.6006 C939.6875,38.1475 938.5313,38.4444 937.3125,38.4444 C934.4219,38.4444 932.3125,36.5538 932.3125,33.9756 L932.3125,32.8506 C932.3125,30.1319 934.3125,28.0538 936.9375,28.0538 C937.8125,28.0538 938.4063,28.1944 939.3438,28.6319 Z "/><text fill="#000000" font-family="sans-serif" font-size="12" lengthAdjust="spacingAndGlyphs" textLength="115" x="951" y="37.1143">SessionRepository</text><line style="stroke: #A80036; stroke-width: 1.5;" x1="923" x2="1068" y1="48.96" y2="48.96"/><line style="stroke: #A80036; stroke-width: 1.5;" x1="923" x2="1068" y1="56.96" y2="56.96"/><!--class Session--><rect fill="#FEFECE" filter="url(#f7cvdo2)" height="48" style="stroke: #A80036; stroke-width: 1.5;" width="81" x="1224.5" y="55.96"/><ellipse cx="1239.5" cy="71.96" fill="#ADD1B2" rx="11" ry="11" style="stroke: #A80036; stroke-width: 1.0;"/><path d="M1241.8438,67.6319 L1242.0156,67.71 C1242.2344,67.3975 1242.4375,67.3038 1242.7344,67.3038 C1243.0313,67.3038 1243.3125,67.4444 1243.4688,67.71 C1243.5625,67.8663 1243.5781,67.9913 1243.5781,68.4288 L1243.5781,69.8506 C1243.5781,70.2725 1243.5469,70.46 1243.4375,70.6163 C1243.2656,70.835 1243,70.9756 1242.7344,70.9756 C1242.5156,70.9756 1242.2813,70.8663 1242.1406,70.7256 C1242,70.6006 1241.9688,70.4756 1241.9063,70.0694 C1241.8125,69.6631 1241.6406,69.4444 1241.1563,69.1631 C1240.6875,68.9131 1240.0781,68.7569 1239.5,68.7569 C1237.7656,68.7569 1236.5156,70.0694 1236.5156,71.8506 L1236.5156,72.9444 C1236.5156,74.6475 1237.8125,75.7413 1239.8594,75.7413 C1240.625,75.7413 1241.3125,75.6163 1241.7344,75.3506 C1241.9219,75.2569 1241.9219,75.2569 1242.375,74.7725 C1242.5625,74.585 1242.7656,74.5069 1242.9844,74.5069 C1243.4531,74.5069 1243.8438,74.8975 1243.8438,75.3506 C1243.8438,75.7413 1243.5156,76.1944 1242.9375,76.6006 C1242.1875,77.1475 1241.0313,77.4444 1239.8125,77.4444 C1236.9219,77.4444 1234.8125,75.5538 1234.8125,72.9756 L1234.8125,71.8506 C1234.8125,69.1319 1236.8125,67.0538 1239.4375,67.0538 C1240.3125,67.0538 1240.9063,67.1944 1241.8438,67.6319 Z "/><text fill="#000000" font-family="sans-serif" font-size="12" lengthAdjust="spacingAndGlyphs" textLength="49" x="1253.5" y="76.1143">Session</text><line style="stroke: #A80036; stroke-width: 1.5;" x1="1225.5" x2="1304.5" y1="87.96" y2="87.96"/><line style="stroke: #A80036; stroke-width: 1.5;" x1="1225.5" x2="1304.5" y1="95.96" y2="95.96"/><path d="M89.4235,555.65 C109.143,513.48 153.813,425.41 209,363.96 C216.555,355.55 225.661,347.57 234.691,340.52 " fill="none" style="stroke: #A80036; stroke-width: 1.0; stroke-dasharray: 7.0,7.0;"/><polygon fill="#A80036" points="239.11,337.14,229.5316,339.432,235.139,340.1783,234.3928,345.7857,239.11,337.14" style="stroke: #A80036; stroke-width: 1.0;"/><path d="M81.8509,604.12 C92.5526,676.53 129.942,897.01 209,1061.96 C220.022,1084.96 236.959,1108.153 251.047,1125.499 " fill="none" style="stroke: #A80036; stroke-width: 1.0; stroke-dasharray: 7.0,7.0;"/><polygon fill="#A80036" points="254.561,1129.78,251.9413,1120.2859,251.3881,1125.9157,245.7584,1125.3625,254.561,1129.78" style="stroke: #A80036; stroke-width: 1.0;"/><path d="M149.268,586.14 C226.338,592.87 348.225,603.51 420.378,609.8 " fill="none" style="stroke: #A80036; stroke-width: 1.0; stroke-dasharray: 7.0,7.0;"/><polygon fill="#A80036" points="425.486,610.25,416.8671,605.4841,420.5049,609.8161,416.1728,613.4539,425.486,610.25" style="stroke: #A80036; stroke-width: 1.0;"/><path d="M94.2371,555.92 C116.64,523.11 160.432,463.92 209,424.96 C262.187,382.3 288.257,391.77 345,353.96 C383.563,328.27 423.911,293.44 450.232,269.48 " fill="none" style="stroke: #A80036; stroke-width: 1.0; stroke-dasharray: 7.0,7.0;"/><polygon fill="#A80036" points="454.012,266.03,444.6721,269.155,450.3234,269.4055,450.0729,275.0568,454.012,266.03" style="stroke: #A80036; stroke-width: 1.0;"/><path d="M120.869,555.72 C152.868,537.41 196.747,512.31 229.674,493.47 " fill="none" style="stroke: #A80036; stroke-width: 1.0; stroke-dasharray: 7.0,7.0;"/><polygon fill="#A80036" points="234.041,490.97,224.2439,491.9783,229.7038,493.4578,228.2243,498.9177,234.041,490.97" style="stroke: #A80036; stroke-width: 1.0;"/><path d="M89.2587,603.99 C122.999,679.33 226.649,910.77 263.132,992.23 " fill="none" style="stroke: #A80036; stroke-width: 1.0; stroke-dasharray: 7.0,7.0;"/><polygon fill="#A80036" points="265.232,996.92,265.2051,987.0712,263.1889,992.3565,257.9035,990.3402,265.232,996.92" style="stroke: #A80036; stroke-width: 1.0;"/><path d="M82.4464,604.02 C96.3088,687.02 145.393,968.85 209,1195.964 C225.371,1254.419 250.155,1320.953 264.545,1358.047 " fill="none" style="stroke: #A80036; stroke-width: 1.0; stroke-dasharray: 7.0,7.0;"/><polygon fill="#A80036" points="266.418,1362.862,266.8828,1353.0241,264.6052,1358.2022,259.4271,1355.9246,266.418,1362.862" style="stroke: #A80036; stroke-width: 1.0;"/><path d="M149.268,566.38 C229.302,551.01 357.667,526.36 428.478,512.76 " fill="none" style="stroke: #A80036; stroke-width: 1.0; stroke-dasharray: 7.0,7.0;"/><polygon fill="#A80036" points="433.475,511.8,423.8813,509.5726,428.5651,512.7448,425.3929,517.4285,433.475,511.8" style="stroke: #A80036; stroke-width: 1.0;"/><path d="M279.391,1411.019 C284.569,1482.386 307.807,1696.746 405,1837.964 C471.27,1934.253 505.039,1958.211 616,1994.9643 C699.959,2022.7733 732.643,2027.2086 815,1994.9643 C885.742,1967.268 945.305,1897.159 974.743,1857.48 " fill="none" style="stroke: #A80036; stroke-width: 1.0;"/><polygon fill="#A80036" points="977.84,1853.267,969.2854,1858.1474,974.8776,1857.2949,975.73,1862.8872,977.84,1853.267" style="stroke: #A80036; stroke-width: 1.0;"/><path d="M809.07,1808.954 C850.018,1813.373 897.041,1818.447 933.487,1822.38 " fill="none" style="stroke: #A80036; stroke-width: 1.0;"/><polygon fill="#A80036" points="938.786,1822.952,930.2665,1818.0105,933.8148,1822.4162,929.4092,1825.9644,938.786,1822.952" style="stroke: #A80036; stroke-width: 1.0;"/><path d="M490.276,1541.184 C507.846,1586.797 551.288,1686.379 616,1747.964 C625.939,1757.423 637.976,1765.567 650.172,1772.396 " fill="none" style="stroke: #A80036; stroke-width: 1.0;"/><polygon fill="#A80036" points="654.67,1774.852,648.6901,1767.0264,650.2823,1772.4545,644.8541,1774.0467,654.67,1774.852" style="stroke: #A80036; stroke-width: 1.0;"/><path d="M280.788,1424.284 C290.325,1541.717 325.556,1900.589 405,1979.964 C627.421,2202.195 1065.32,2033.0202 1213.57,1966.067 " fill="none" style="stroke: #A80036; stroke-width: 1.0;"/><polygon fill="#FFFFFF" points="279.751,1411.195,276.2376,1417.4923,280.6992,1423.1575,284.2126,1416.8602,279.751,1411.195" style="stroke: #A80036; stroke-width: 1.0;"/><path d="M773.239,1828.852 C802.875,1843.395 840.144,1860.05 875,1870.964 C975.891,1902.557 1096.17,1921.833 1176,1932.178 " fill="none" style="stroke: #A80036; stroke-width: 1.0;"/><polygon fill="#FFFFFF" points="761.451,1822.981,765.0392,1829.236,772.1931,1828.3296,768.6049,1822.0746,761.451,1822.981" style="stroke: #A80036; stroke-width: 1.0;"/><path d="M495.688,1553.369 C527.941,1635.807 604.839,1830.443 616,1840.964 C621.542,1846.189 867.508,1929.591 875,1930.964 C977.006,1949.669 1096.54,1949.898 1175.91,1947.082 " fill="none" style="stroke: #A80036; stroke-width: 1.0;"/><polygon fill="#FFFFFF" points="490.912,1541.147,489.3703,1548.1914,495.2799,1552.3238,496.8215,1545.2795,490.912,1541.147" style="stroke: #A80036; stroke-width: 1.0;"/><path d="M1052.25,1852.515 C1096.07,1871.025 1157.06,1896.788 1202.33,1915.913 " fill="none" style="stroke: #A80036; stroke-width: 1.0;"/><polygon fill="#A80036" points="1206.94,1917.859,1200.2023,1910.6755,1202.3331,1915.9156,1197.0929,1918.0465,1206.94,1917.859" style="stroke: #A80036; stroke-width: 1.0;"/><path d="M338.238,1385.689 C394.576,1384.285 481.044,1381.589 556,1376.964 C805.366,1361.58 867.881,1357.234 1116,1327.964 C1151.85,1323.735 1192.39,1317.615 1221.96,1312.903 " fill="none" style="stroke: #A80036; stroke-width: 1.0;"/><polygon fill="#A80036" points="1226.98,1312.1,1217.4632,1309.5642,1222.0421,1312.8858,1218.7205,1317.4648,1226.98,1312.1" style="stroke: #A80036; stroke-width: 1.0;"/><path d="M526.091,478.81 C640.427,420.52 946.906,287.79 1116,439.96 C1210.35,524.87 1151.26,883.47 1176,1007.96 C1195.97,1108.427 1234.73,1223.799 1253.42,1276.697 " fill="none" style="stroke: #A80036; stroke-width: 1.0;"/><polygon fill="#A80036" points="1255.16,1281.618,1255.9226,1271.7987,1253.4892,1276.9054,1248.3825,1274.472,1255.16,1281.618" style="stroke: #A80036; stroke-width: 1.0;"/><path d="M769.038,495.9 C876.134,524.41 1110.14,587.29 1116,593.96 C1177.35,663.81 1156.12,917.15 1176,1007.96 C1197.96,1108.277 1235.92,1224.179 1253.94,1277.02 " fill="none" style="stroke: #A80036; stroke-width: 1.0;"/><polygon fill="#A80036" points="1255.62,1281.935,1256.4898,1272.1246,1254.0008,1277.2045,1248.9209,1274.7154,1255.62,1281.935" style="stroke: #A80036; stroke-width: 1.0;"/><path d="M535.918,356.79 C657.465,313.46 953.103,230.63 1116,378.96 C1219.82,473.5 1149.33,870.11 1176,1007.96 C1195.46,1108.527 1234.46,1223.85 1253.31,1276.717 " fill="none" style="stroke: #A80036; stroke-width: 1.0;"/><polygon fill="#A80036" points="1255.07,1281.635,1255.8088,1271.8139,1253.3878,1276.9265,1248.2752,1274.5055,1255.07,1281.635" style="stroke: #A80036; stroke-width: 1.0;"/><path d="M766.098,1084.88 C782.145,1093.016 799.73,1102.715 815,1112.964 C844.06,1132.469 844.53,1146.746 875,1163.964 C973.378,1219.558 1010.15,1205.412 1116,1244.964 C1152.2,1258.491 1192.74,1275.322 1222.23,1287.876 " fill="none" style="stroke: #A80036; stroke-width: 1.0;"/><polygon fill="#A80036" points="1226.86,1289.852,1220.1452,1282.647,1222.2593,1287.894,1217.0124,1290.0081,1226.86,1289.852" style="stroke: #A80036; stroke-width: 1.0;"/><path d="M533.673,1528.022 C599.964,1540.132 717.487,1555.089 815,1532.964 C979.949,1495.539 1152.26,1384.85 1226.42,1333.147 " fill="none" style="stroke: #A80036; stroke-width: 1.0;"/><polygon fill="#A80036" points="1230.73,1330.128,1221.0641,1332.0177,1226.6355,1332.9976,1225.6555,1338.5689,1230.73,1330.128" style="stroke: #A80036; stroke-width: 1.0;"/><path d="M1018.39,1804.772 C1044.25,1775.295 1087.34,1723.191 1116,1672.964 C1183.69,1554.326 1235.51,1398.602 1255.28,1334.957 " fill="none" style="stroke: #A80036; stroke-width: 1.0;"/><polygon fill="#A80036" points="1256.76,1330.172,1250.2773,1337.5865,1255.2813,1334.9484,1257.9195,1339.9524,1256.76,1330.172" style="stroke: #A80036; stroke-width: 1.0;"/><path d="M746.967,1774.877 C815.016,1720.702 983.772,1584.253 1116,1459.964 C1160.92,1417.744 1209.91,1365.416 1238.74,1333.913 " fill="none" style="stroke: #A80036; stroke-width: 1.0;"/><polygon fill="#A80036" points="1242.16,1330.176,1233.1408,1334.1325,1238.7916,1333.8711,1239.053,1339.5219,1242.16,1330.176" style="stroke: #A80036; stroke-width: 1.0;"/><path d="M1031.98,660.09 C1059.09,680.4 1095.22,711.86 1116,747.96 C1175.16,850.75 1145.86,893.27 1176,1007.96 C1202.1,1107.281 1238.04,1223.668 1254.76,1276.824 " fill="none" style="stroke: #A80036; stroke-width: 1.0;"/><polygon fill="#A80036" points="1256.31,1281.768,1257.4241,1271.9824,1254.8092,1276.9986,1249.793,1274.3836,1256.31,1281.768" style="stroke: #A80036; stroke-width: 1.0;"/><path d="M1314.97,1282.515 C1354.92,1263.39 1411.13,1236.472 1451.49,1217.15 " fill="none" style="stroke: #A80036; stroke-width: 1.0;"/><polygon fill="#FFFFFF" points="1303.13,1288.184,1310.2691,1289.2003,1313.9531,1283.0013,1306.814,1281.9849,1303.13,1288.184" style="stroke: #A80036; stroke-width: 1.0;"/><path d="M769.038,460.66 C847.807,432.14 999.672,390.51 1116,439.96 C1256.3,499.61 1286.79,550.13 1354,686.96 C1434.62,851.08 1336.7,928.26 1414,1093.964 C1426.85,1121.512 1449.89,1147.007 1469.18,1165.224 " fill="none" style="stroke: #A80036; stroke-width: 1.0;"/><polygon fill="#A80036" points="1472.98,1168.768,1469.131,1159.7024,1469.3252,1165.3559,1463.6717,1165.5501,1472.98,1168.768" style="stroke: #A80036; stroke-width: 1.0;"/><path d="M766.068,1061.38 C797.119,1054.6 838.106,1043.4 875,1035.96 C994.365,1011.9 1136.65,996.1 1211.68,982.96 " fill="none" style="stroke: #A80036; stroke-width: 1.0;"/><polygon fill="#A80036" points="1216.96,982.02,1207.3944,979.675,1212.0388,982.9044,1208.8094,987.5488,1216.96,982.02" style="stroke: #A80036; stroke-width: 1.0;"/><path d="M749.287,1037.9 C781.13,1024.07 830.979,1009.84 875,1000.96 C994.365,976.9 1136.65,961.1 1211.68,959.87 " fill="none" style="stroke: #A80036; stroke-width: 1.0;"/><polygon fill="#A80036" points="1216.96,959.8,1207.9149,955.9031,1211.9603,959.8571,1208.0063,963.9026,1216.96,959.8" style="stroke: #A80036; stroke-width: 1.0;"/><path d="M1065.04,1036.88 C1110.8,1020.8 1170.04,999.98 1211.94,985.26 " fill="none" style="stroke: #A80036; stroke-width: 1.0;"/><polygon fill="#A80036" points="1216.71,983.58,1206.8928,982.791,1211.9929,985.2381,1209.5458,990.3383,1216.71,983.58" style="stroke: #A80036; stroke-width: 1.0;"/><path d="M1060.06,806.38 C1078.79,812.63 1098.85,820.76 1116,830.96 C1165.5,860.43 1212.71,908.45 1239.99,938.84 " fill="none" style="stroke: #A80036; stroke-width: 1.0;"/><polygon fill="#A80036" points="1243.54,942.82,1240.5303,933.4423,1240.2102,939.0901,1234.5624,938.7699,1243.54,942.82" style="stroke: #A80036; stroke-width: 1.0;"/><path d="M505.586,478.86 C521.021,462.71 540.913,440.53 556,418.96 C588.151,373.02 567.832,336.68 616,307.96 C808.788,193.02 956.108,221.44 1116,378.96 C1197.86,459.61 1247.73,830.33 1260.64,937.73 " fill="none" style="stroke: #A80036; stroke-width: 1.0;"/><polygon fill="#A80036" points="1261.27,942.94,1264.1596,933.5246,1260.6692,937.9762,1256.2175,934.4859,1261.27,942.94" style="stroke: #A80036; stroke-width: 1.0;"/><path d="M766.201,1061.79 C795.079,1061.68 832.875,1061.55 869.381,1061.41 " fill="none" style="stroke: #A80036; stroke-width: 1.0;"/><polygon fill="#A80036" points="874.756,1061.4,865.7412,1057.4335,869.756,1061.4186,865.7709,1065.4334,874.756,1061.4" style="stroke: #A80036; stroke-width: 1.0;"/><path d="M1280.91,1342.311 C1303.21,1392.768 1349.61,1484.218 1414,1540.964 C1423.74,1549.545 1435.58,1556.673 1447.38,1562.446 " fill="none" style="stroke: #A80036; stroke-width: 1.0;"/><polygon fill="#FFFFFF" points="1275.64,1330.116,1274.3464,1337.2101,1280.3972,1341.1327,1281.6909,1334.0386,1275.64,1330.116" style="stroke: #A80036; stroke-width: 1.0;"/><path d="M718.702,1086.05 C726.325,1154.642 757.939,1352.315 875,1449.964 C1042.29,1589.513 1320.56,1592.802 1442.11,1586.641 " fill="none" style="stroke: #A80036; stroke-width: 1.0;"/><polygon fill="#A80036" points="1447.43,1586.361,1438.2362,1582.8292,1442.4366,1586.6182,1438.6476,1590.8186,1447.43,1586.361" style="stroke: #A80036; stroke-width: 1.0;"/><path d="M1052.2,1833.588 C1126.38,1837.086 1259.23,1833.86 1354,1777.964 C1421.33,1738.255 1468.12,1654.91 1489.27,1610.786 " fill="none" style="stroke: #A80036; stroke-width: 1.0;"/><polygon fill="#A80036" points="1491.48,1606.123,1484.0182,1612.5512,1489.3437,1610.6437,1491.2513,1615.9692,1491.48,1606.123" style="stroke: #A80036; stroke-width: 1.0;"/><path d="M1325.54,988.66 C1360.25,1001.31 1403.98,1017.25 1439.23,1030.09 " fill="none" style="stroke: #A80036; stroke-width: 1.0;"/><polygon fill="#FFFFFF" points="1313.19,984.16,1317.4612,989.97,1324.4671,988.262,1320.1959,982.4519,1313.19,984.16" style="stroke: #A80036; stroke-width: 1.0;"/><path d="M766.222,1077.88 C797.156,1086.93 837.965,1097.363 875,1101.964 C1077.59,1127.133 1318.71,1089.4 1434.01,1067.22 " fill="none" style="stroke: #A80036; stroke-width: 1.0;"/><polygon fill="#A80036" points="1439.07,1066.24,1429.4775,1064.0075,1434.1596,1067.1821,1430.9849,1071.8642,1439.07,1066.24" style="stroke: #A80036; stroke-width: 1.0;"/><path d="M293.827,442.92 C308.221,420.47 329.517,385.74 345,353.96 C377.173,287.93 357.664,256.13 405,199.96 C464.54,129.31 561.639,83.53 631.205,57.88 " fill="none" style="stroke: #A80036; stroke-width: 1.0;"/><polygon fill="#A80036" points="636.166,56.06,626.3394,55.3984,631.4708,57.7792,629.0901,62.9106,636.166,56.06" style="stroke: #A80036; stroke-width: 1.0;"/><path d="M504.965,353.61 C521.335,335.44 542.572,309.29 556,282.96 C600.105,196.49 551.461,145.47 616,72.96 C620.803,67.57 626.429,62.86 632.515,58.77 " fill="none" style="stroke: #A80036; stroke-width: 1.0;"/><polygon fill="#A80036" points="636.798,56.03,627.0606,57.5077,632.5853,58.7232,631.3698,64.248,636.798,56.03" style="stroke: #A80036; stroke-width: 1.0;"/><path d="M335.725,1009.04 C459.651,983.44 752.067,923.04 902.129,892.04 " fill="none" style="stroke: #A80036; stroke-width: 1.0;"/><polygon fill="#A80036" points="907.406,890.95,897.7826,888.8546,902.5095,891.9621,899.402,896.689,907.406,890.95" style="stroke: #A80036; stroke-width: 1.0;"/><path d="M766.063,1042.17 C782.726,1034.05 800.698,1023.57 815,1010.96 C850.238,979.91 838.631,953.69 875,923.96 C886.926,914.22 900.991,906.04 915.206,899.29 " fill="none" style="stroke: #A80036; stroke-width: 1.0;"/><polygon fill="#A80036" points="920.03,897.06,910.1823,897.2107,915.4925,899.1604,913.5429,904.4706,920.03,897.06" style="stroke: #A80036; stroke-width: 1.0;"/><path d="M334.103,1044.97 C439.08,1089.38 672.871,1185.971 875,1252.964 C882.613,1255.488 890.543,1257.976 898.534,1260.385 " fill="none" style="stroke: #A80036; stroke-width: 1.0;"/><polygon fill="#A80036" points="903.516,1261.875,896.0399,1255.4635,898.7257,1260.4421,893.7472,1263.1279,903.516,1261.875" style="stroke: #A80036; stroke-width: 1.0;"/><path d="M766.134,1080.13 C783.187,1088.2 801.39,1099.07 815,1112.964 C857.283,1156.131 831.142,1193.4 875,1234.964 C885.353,1244.776 897.883,1252.852 910.882,1259.452 " fill="none" style="stroke: #A80036; stroke-width: 1.0;"/><polygon fill="#A80036" points="915.689,1261.817,909.3786,1254.2553,911.2024,1259.6101,905.8476,1261.4339,915.689,1261.817" style="stroke: #A80036; stroke-width: 1.0;"/><path d="M533.639,1523.26 C602.485,1529.061 725.447,1530.543 815,1481.964 C852.218,1461.775 846.822,1439.568 875,1407.964 C904.78,1374.565 940.981,1338.143 965.681,1313.871 " fill="none" style="stroke: #A80036; stroke-width: 1.0;"/><polygon fill="#A80036" points="969.544,1310.083,960.3178,1313.5292,965.9743,1313.5841,965.9195,1319.2407,969.544,1310.083" style="stroke: #A80036; stroke-width: 1.0;"/><path d="M533.79,1499.684 C564.098,1489.668 602.838,1476.865 636.67,1465.685 " fill="none" style="stroke: #A80036; stroke-width: 1.0;"/><polygon fill="#A80036" points="641.625,1464.047,631.8242,1463.0753,636.8779,1465.617,634.3362,1470.6707,641.625,1464.047" style="stroke: #A80036; stroke-width: 1.0;"/><path d="M308.097,996.91 C416.957,912.94 800.429,643.48 1116,747.96 C1241.14,789.4 1283.84,813.36 1354,924.96 C1428.69,1043.77 1378.4,1099.22 1414,1234.964 C1436.81,1321.937 1472.96,1421.98 1491,1470.124 " fill="none" style="stroke: #A80036; stroke-width: 1.0;"/><polygon fill="#A80036" points="1492.8,1474.898,1493.3826,1465.0664,1491.0431,1470.2168,1485.8927,1467.8774,1492.8,1474.898" style="stroke: #A80036; stroke-width: 1.0;"/><path d="M512.58,1540.975 C539.56,1552.993 579.861,1564.339 616,1568.964 C909.528,1606.53 1261.25,1557.911 1418.69,1524.095 " fill="none" style="stroke: #A80036; stroke-width: 1.0;"/><polygon fill="#A80036" points="1423.74,1522.999,1414.0978,1520.9922,1418.853,1524.0561,1415.7891,1528.8114,1423.74,1522.999" style="stroke: #A80036; stroke-width: 1.0;"/><path d="M533.591,1517.476 C558.279,1522.957 588.357,1530.427 616,1533.964 C903.48,1570.756 1246.78,1524.878 1408.71,1505.083 " fill="none" style="stroke: #A80036; stroke-width: 1.0;"/><polygon fill="#A80036" points="1413.92,1504.448,1404.4968,1501.5838,1408.9579,1505.0622,1405.4795,1509.5233,1413.92,1504.448" style="stroke: #A80036; stroke-width: 1.0;"/><path d="M1295.41,1330.018 C1339.43,1366.016 1422.21,1433.712 1468.5,1471.567 " fill="none" style="stroke: #A80036; stroke-width: 1.0;"/><polygon fill="#A80036" points="1472.59,1474.912,1468.1642,1466.1136,1468.7227,1471.7428,1463.0935,1472.3012,1472.59,1474.912" style="stroke: #A80036; stroke-width: 1.0;"/><path d="M723.907,1086.03 C741.296,1138.406 789.827,1263.237 875,1327.964 C1035.53,1449.962 1277.47,1484.962 1408.94,1494.976 " fill="none" style="stroke: #A80036; stroke-width: 1.0;"/><polygon fill="#A80036" points="1413.95,1495.35,1405.2719,1490.6926,1408.9638,1494.9786,1404.6778,1498.6705,1413.95,1495.35" style="stroke: #A80036; stroke-width: 1.0;"/><path d="M288.338,1411.065 C323.473,1490.59 445.652,1748.323 616,1901.964 C626.38,1911.326 638.792,1919.479 651.25,1926.356 " fill="none" style="stroke: #A80036; stroke-width: 1.0;"/><polygon fill="#A80036" points="655.838,1928.832,649.816,1921.0387,651.4374,1926.4582,646.0179,1928.0796,655.838,1928.832" style="stroke: #A80036; stroke-width: 1.0;"/><path d="M488.826,1541.215 C513.144,1621.201 591.062,1873.218 616,1901.964 C624.355,1911.596 634.977,1919.656 646.135,1926.315 " fill="none" style="stroke: #A80036; stroke-width: 1.0;"/><polygon fill="#A80036" points="650.602,1928.893,644.8059,1920.9303,646.2713,1926.394,640.8075,1927.8594,650.602,1928.893" style="stroke: #A80036; stroke-width: 1.0;"/><path d="M769.116,481.96 C813.465,481.96 877.25,481.96 925.654,481.96 " fill="none" style="stroke: #A80036; stroke-width: 1.0; stroke-dasharray: 7.0,7.0;"/><polygon fill="#A80036" points="930.882,481.96,921.882,477.96,925.882,481.96,921.882,485.96,930.882,481.96" style="stroke: #A80036; stroke-width: 1.0;"/><path d="M310.88,1362.945 C335.477,1338.301 370.656,1301.039 405,1271.964 C421.621,1257.893 442.145,1244.074 457.439,1231.659 " fill="none" style="stroke: #A80036; stroke-width: 1.0;"/><polygon fill="#A80036" points="461.607,1228.196,452.1285,1230.8716,457.7614,1231.3916,457.2415,1237.0245,461.607,1228.196" style="stroke: #A80036; stroke-width: 1.0;"/><path d="M289.439,1362.822 C310.763,1330.372 358.641,1276.21 405,1236.964 C411.241,1231.681 418.033,1226.432 424.891,1221.577 " fill="none" style="stroke: #A80036; stroke-width: 1.0;"/><polygon fill="#A80036" points="429.166,1218.607,419.4926,1220.4577,425.0599,1221.4601,424.0576,1227.0274,429.166,1218.607" style="stroke: #A80036; stroke-width: 1.0;"/><path d="M329.63,1166.776 C358.62,1173.969 394.793,1182.945 424.339,1190.277 " fill="none" style="stroke: #A80036; stroke-width: 1.0;"/><polygon fill="#A80036" points="429.397,1191.532,421.6254,1185.4821,424.5442,1190.3277,419.6985,1193.2466,429.397,1191.532" style="stroke: #A80036; stroke-width: 1.0;"/><path d="M284.59,491.07 C314.631,600.95 438.557,1054.21 471.453,1174.531 " fill="none" style="stroke: #A80036; stroke-width: 1.0;"/><polygon fill="#A80036" points="472.859,1179.674,474.3439,1169.9377,471.5404,1174.851,466.6271,1172.0475,472.859,1179.674" style="stroke: #A80036; stroke-width: 1.0;"/><path d="M298.679,1045.29 C322.771,1072.93 364.466,1118.65 405,1152.964 C414.822,1161.279 426.007,1169.506 436.67,1176.847 " fill="none" style="stroke: #A80036; stroke-width: 1.0;"/><polygon fill="#A80036" points="440.884,1179.721,435.7017,1171.3458,436.753,1176.9041,431.1947,1177.9555,440.884,1179.721" style="stroke: #A80036; stroke-width: 1.0;"/><path d="M549.104,617.73 C646.537,621.72 825.555,629.05 924.374,633.09 " fill="none" style="stroke: #A80036; stroke-width: 1.0;"/><polygon fill="#FFFFFF" points="535.914,617.19,541.745,621.4326,547.9039,617.682,542.073,613.4394,535.914,617.19" style="stroke: #A80036; stroke-width: 1.0;"/><path d="M540.739,518.32 C635.948,543.01 822.615,591.4 924.342,617.78 " fill="none" style="stroke: #A80036; stroke-width: 1.0;"/><polygon fill="#FFFFFF" points="527.93,515,532.7342,520.3777,539.546,518.0115,534.7418,512.6337,527.93,515" style="stroke: #A80036; stroke-width: 1.0;"/><path d="M780.373,512.22 C792.177,518.6 804.182,525.63 815,532.96 C844.205,552.77 845.078,566.26 875,584.96 C891.353,595.19 910.113,604.27 927.847,611.84 " fill="none" style="stroke: #A80036; stroke-width: 1.0;"/><polygon fill="#FFFFFF" points="768.689,506.09,772.1411,512.4211,779.313,511.6696,775.8608,505.3385,768.689,506.09" style="stroke: #A80036; stroke-width: 1.0;"/><path d="M548.839,376.23 C620.22,377.46 733.66,388.48 815,439.96 C853.46,464.31 844.998,488.73 875,522.96 C903.794,555.82 940.855,589.76 966.016,611.76 " fill="none" style="stroke: #A80036; stroke-width: 1.0;"/><polygon fill="#FFFFFF" points="535.581,376.1,541.5434,380.1559,547.5805,376.2121,541.6181,372.1562,535.581,376.1" style="stroke: #A80036; stroke-width: 1.0;"/><path d="M730,1025.55 C753.653,964.51 806.64,839.28 875,747.96 C900.561,713.82 937.195,681.24 963.15,660.11 " fill="none" style="stroke: #A80036; stroke-width: 1.0;"/><polygon fill="#FFFFFF" points="725.273,1037.91,731.1522,1033.7345,729.5591,1026.7015,723.6799,1030.8771,725.273,1037.91" style="stroke: #A80036; stroke-width: 1.0;"/><path d="M496.719,1480.731 C513.528,1439.378 540.288,1369.385 556,1306.964 C598.915,1136.471 525.146,1066.48 616,915.96 C693.298,787.9 853.498,699.85 938.577,660.04 " fill="none" style="stroke: #A80036; stroke-width: 1.0;"/><polygon fill="#FFFFFF" points="491.741,1492.855,497.7204,1488.8243,496.2996,1481.7546,490.3202,1485.7853,491.741,1492.855" style="stroke: #A80036; stroke-width: 1.0;"/><path d="M791.342,95.04 C831.844,84.26 881.657,71 921.821,60.31 " fill="none" style="stroke: #A80036; stroke-width: 1.0;"/><polygon fill="#FFFFFF" points="778.543,98.45,785.3703,100.7711,790.1388,95.3617,783.3115,93.0406,778.543,98.45" style="stroke: #A80036; stroke-width: 1.0;"/><path d="M523.553,535.05 C549.552,554.29 583.967,578.67 616,597.96 C728.029,665.45 866.668,731.66 941.159,765.91 " fill="none" style="stroke: #A80036; stroke-width: 1.0;"/><polygon fill="#FFFFFF" points="512.958,527.16,515.3801,533.9522,522.5814,534.3287,520.1593,527.5366,512.958,527.16" style="stroke: #A80036; stroke-width: 1.0;"/><path d="M746.808,1027.79 C767.218,1003.99 794.117,971.07 815,939.96 C845.822,894.05 832.671,866.55 875,830.96 C890.866,817.63 911.302,808.55 930.772,802.4 " fill="none" style="stroke: #A80036; stroke-width: 1.0;"/><polygon fill="#FFFFFF" points="738.213,1037.72,745.1648,1035.8035,746.0695,1028.6494,739.1177,1030.5659,738.213,1037.72" style="stroke: #A80036; stroke-width: 1.0;"/><path d="M496.103,1480.567 C512.356,1439.066 538.614,1368.939 556,1306.964 C591.198,1181.495 545.323,1129.446 616,1019.96 C690.128,905.14 843.792,838.88 930.806,809.11 " fill="none" style="stroke: #A80036; stroke-width: 1.0;"/><polygon fill="#FFFFFF" points="491.302,1492.738,497.2246,1488.6243,495.7052,1481.575,489.7826,1485.6888,491.302,1492.738" style="stroke: #A80036; stroke-width: 1.0;"/><path d="M535.011,584.42 C576.68,560.63 633.722,528.07 672.226,506.09 " fill="none" style="stroke: #A80036; stroke-width: 1.0;"/><polygon fill="#FFFFFF" points="523.695,590.88,530.8886,591.3823,534.119,584.9353,526.9254,584.433,523.695,590.88" style="stroke: #A80036; stroke-width: 1.0;"/><path d="M540.749,497.62 C578.008,494.27 625.665,489.97 661.64,486.73 " fill="none" style="stroke: #A80036; stroke-width: 1.0;"/><polygon fill="#FFFFFF" points="527.533,498.82,533.868,502.265,539.4845,497.7423,533.1495,494.2973,527.533,498.82" style="stroke: #A80036; stroke-width: 1.0;"/><path d="M547.496,407.42 C583.743,423.6 628.078,443.39 661.956,458.51 " fill="none" style="stroke: #A80036; stroke-width: 1.0;"/><polygon fill="#FFFFFF" points="535.541,402.09,539.3897,408.1881,546.4991,406.9809,542.6503,400.8828,535.541,402.09" style="stroke: #A80036; stroke-width: 1.0;"/><path d="M497.524,1480.551 C514.939,1439.297 542.13,1369.641 556,1306.964 C616.963,1031.48 537.137,945.87 616,674.96 C634.874,610.13 675.707,541.33 698.425,506 " fill="none" style="stroke: #A80036; stroke-width: 1.0;"/><polygon fill="#FFFFFF" points="492.351,1492.652,498.3874,1488.7071,497.0677,1481.6178,491.0313,1485.5627,492.351,1492.652" style="stroke: #A80036; stroke-width: 1.0;"/><path d="M344.664,437.52 C370.826,425.96 400.464,412.87 425.277,401.91 " fill="none" style="stroke: #A80036; stroke-width: 1.0;"/><polygon fill="#FFFFFF" points="332.529,442.88,339.6339,444.1132,343.5049,438.0292,336.4,436.796,332.529,442.88" style="stroke: #A80036; stroke-width: 1.0;"/><path d="M327.244,1355.996 C350.462,1341.887 378.769,1325.38 405,1311.964 C470.208,1278.614 513.652,1305.722 556,1245.964 C659.848,1099.424 583.087,616.53 616,439.96 C637.5,324.62 685.094,192.22 705.223,138.97 " fill="none" style="stroke: #A80036; stroke-width: 1.0;"/><polygon fill="#FFFFFF" points="315.946,1362.916,323.1518,1363.1931,326.1791,1356.6483,318.9733,1356.3711,315.946,1362.916" style="stroke: #A80036; stroke-width: 1.0;"/><path d="M534.391,211.49 C559.072,197.42 588.917,180.62 616,165.96 C632.597,156.98 650.922,147.4 667.219,139 " fill="none" style="stroke: #A80036; stroke-width: 1.0;"/><polygon fill="#FFFFFF" points="523.085,217.95,530.279,218.4456,533.5035,211.9956,526.3095,211.5,523.085,217.95" style="stroke: #A80036; stroke-width: 1.0;"/><path d="M511.027,343.62 C525.437,326.07 542.524,304.01 556,282.96 C587.508,233.75 574.758,207.37 616,165.96 C626.668,155.25 640.056,146.32 653.491,139.07 " fill="none" style="stroke: #A80036; stroke-width: 1.0;"/><polygon fill="#FFFFFF" points="502.458,353.92,509.3704,351.8661,510.1331,344.6954,503.2207,346.7493,502.458,353.92" style="stroke: #A80036; stroke-width: 1.0;"/><path d="M348.683,1027.6 C437.461,1035.94 587.516,1050.04 664.961,1057.31 " fill="none" style="stroke: #A80036; stroke-width: 1.0;"/><polygon fill="#FFFFFF" points="335.514,1026.37,341.1136,1030.9136,347.4614,1027.4922,341.8618,1022.9486,335.514,1026.37" style="stroke: #A80036; stroke-width: 1.0;"/><path d="M351.346,1380.128 C411.347,1371.398 495.819,1351.621 556,1306.964 C635.738,1247.795 686.287,1135.614 705.602,1086.28 " fill="none" style="stroke: #A80036; stroke-width: 1.0;"/><polygon fill="#FFFFFF" points="338.173,1381.925,344.6586,1385.0773,350.0629,1380.3029,343.5772,1377.1507,338.173,1381.925" style="stroke: #A80036; stroke-width: 1.0;"/><path d="M500.915,1481.379 C516.108,1453.38 537.662,1413.321 556,1377.964 C612.092,1269.815 676.493,1139.393 702.593,1086.26 " fill="none" style="stroke: #A80036; stroke-width: 1.0;"/><polygon fill="#FFFFFF" points="494.619,1492.962,500.9985,1489.6002,500.349,1482.4184,493.9695,1485.7802,494.619,1492.962" style="stroke: #A80036; stroke-width: 1.0;"/><path d="M326.522,1418.269 C362.095,1441.219 409.675,1471.916 442.272,1492.946 " fill="none" style="stroke: #A80036; stroke-width: 1.0;"/><polygon fill="#FFFFFF" points="315.428,1411.112,318.3016,1417.7258,325.5119,1417.617,322.6383,1411.0032,315.428,1411.112" style="stroke: #A80036; stroke-width: 1.0;"/><path d="M778.506,111 C890.037,103.87 1121.92,89.05 1219.36,82.82 " fill="none" style="stroke: #A80036; stroke-width: 1.0;"/><polygon fill="#A80036" points="1224.46,82.49,1215.2268,79.0625,1219.4698,82.8037,1215.7287,87.0467,1224.46,82.49" style="stroke: #A80036; stroke-width: 1.0;"/><path d="M1069.24,51.57 C1117.07,58.54 1178.14,67.45 1219.02,73.41 " fill="none" style="stroke: #A80036; stroke-width: 1.0;"/><polygon fill="#A80036" points="1224.41,74.19,1216.0746,68.9439,1219.4614,73.4749,1214.9304,76.8617,1224.41,74.19" style="stroke: #A80036; stroke-width: 1.0;"/></g></svg>